<?xml version="1.0" encoding="UTF-8"?>
<!DOCTYPE svg PUBLIC "-//W3C//DTD SVG 1.1//EN" "http://www.w3.org/Graphics/SVG/1.1/DTD/svg11.dtd">
<svg xmlns="http://www.w3.org/2000/svg" version="1.1" width="290px" height="290px" style="shape-rendering:geometricPrecision; text-rendering:geometricPrecision; image-rendering:optimizeQuality; fill-rule:evenodd; clip-rule:evenodd" xmlns:xlink="http://www.w3.org/1999/xlink">
<g><path style="opacity:1" fill="#e5ebef" d="M 89.5,-0.5 C 92.8333,-0.5 96.1667,-0.5 99.5,-0.5C 99.5,2.83333 99.5,6.16667 99.5,9.5C 96.1667,9.5 92.8333,9.5 89.5,9.5C 89.5,6.16667 89.5,2.83333 89.5,-0.5 Z"/></g>
<g><path style="opacity:1" fill="#e5ebef" d="M 199.5,-0.5 C 202.833,-0.5 206.167,-0.5 209.5,-0.5C 209.5,2.83333 209.5,6.16667 209.5,9.5C 206.167,9.5 202.833,9.5 199.5,9.5C 199.5,6.16667 199.5,2.83333 199.5,-0.5 Z"/></g>
<g><path style="opacity:1" fill="#e5ebef" d="M 89.5,9.5 C 89.5,12.8333 89.5,16.1667 89.5,19.5C 86.1667,19.5 82.8333,19.5 79.5,19.5C 79.5,16.1667 79.5,12.8333 79.5,9.5C 82.8333,9.5 86.1667,9.5 89.5,9.5 Z"/></g>
<g><path style="opacity:1" fill="#202026" d="M 89.5,9.5 C 92.8333,9.5 96.1667,9.5 99.5,9.5C 99.5,12.8333 99.5,16.1667 99.5,19.5C 96.1667,19.5 92.8333,19.5 89.5,19.5C 89.5,16.1667 89.5,12.8333 89.5,9.5 Z"/></g>
<g><path style="opacity:1" fill="#e5ebef" d="M 99.5,9.5 C 102.833,9.5 106.167,9.5 109.5,9.5C 109.5,12.8333 109.5,16.1667 109.5,19.5C 106.167,19.5 102.833,19.5 99.5,19.5C 99.5,16.1667 99.5,12.8333 99.5,9.5 Z"/></g>
<g><path style="opacity:1" fill="#e5ebef" d="M 199.5,9.5 C 199.5,12.8333 199.5,16.1667 199.5,19.5C 196.167,19.5 192.833,19.5 189.5,19.5C 189.5,16.1667 189.5,12.8333 189.5,9.5C 192.833,9.5 196.167,9.5 199.5,9.5 Z"/></g>
<g><path style="opacity:1" fill="#202026" d="M 199.5,9.5 C 202.833,9.5 206.167,9.5 209.5,9.5C 209.5,12.8333 209.5,16.1667 209.5,19.5C 206.167,19.5 202.833,19.5 199.5,19.5C 199.5,16.1667 199.5,12.8333 199.5,9.5 Z"/></g>
<g><path style="opacity:1" fill="#e5ebef" d="M 209.5,9.5 C 212.833,9.5 216.167,9.5 219.5,9.5C 219.5,12.8333 219.5,16.1667 219.5,19.5C 216.167,19.5 212.833,19.5 209.5,19.5C 209.5,16.1667 209.5,12.8333 209.5,9.5 Z"/></g>
<g><path style="opacity:1" fill="#e5ebef" d="M 79.5,19.5 C 79.5,39.5 79.5,59.5 79.5,79.5C 76.1667,79.5 72.8333,79.5 69.5,79.5C 69.5,59.5 69.5,39.5 69.5,19.5C 72.8333,19.5 76.1667,19.5 79.5,19.5 Z"/></g>
<g><path style="opacity:1" fill="#202026" d="M 79.5,19.5 C 82.8333,19.5 86.1667,19.5 89.5,19.5C 89.5,29.5 89.5,39.5 89.5,49.5C 89.5,56.1667 89.5,62.8333 89.5,69.5C 92.8333,69.5 96.1667,69.5 99.5,69.5C 99.5,72.8333 99.5,76.1667 99.5,79.5C 92.8333,79.5 86.1667,79.5 79.5,79.5C 79.5,59.5 79.5,39.5 79.5,19.5 Z"/></g>
<g><path style="opacity:1" fill="#309d57" d="M 89.5,19.5 C 92.8333,19.5 96.1667,19.5 99.5,19.5C 99.5,22.8333 99.5,26.1667 99.5,29.5C 102.833,29.5 106.167,29.5 109.5,29.5C 109.5,32.8333 109.5,36.1667 109.5,39.5C 112.833,39.5 116.167,39.5 119.5,39.5C 119.5,46.1667 119.5,52.8333 119.5,59.5C 119.5,62.8333 119.5,66.1667 119.5,69.5C 116.167,69.5 112.833,69.5 109.5,69.5C 109.5,66.1667 109.5,62.8333 109.5,59.5C 106.167,59.5 102.833,59.5 99.5,59.5C 99.5,56.1667 99.5,52.8333 99.5,49.5C 96.1667,49.5 92.8333,49.5 89.5,49.5C 89.5,39.5 89.5,29.5 89.5,19.5 Z"/></g>
<g><path style="opacity:1" fill="#202026" d="M 99.5,19.5 C 102.833,19.5 106.167,19.5 109.5,19.5C 109.5,22.8333 109.5,26.1667 109.5,29.5C 106.167,29.5 102.833,29.5 99.5,29.5C 99.5,26.1667 99.5,22.8333 99.5,19.5 Z"/></g>
<g><path style="opacity:1" fill="#e5ebef" d="M 109.5,19.5 C 112.833,19.5 116.167,19.5 119.5,19.5C 119.5,22.8333 119.5,26.1667 119.5,29.5C 116.167,29.5 112.833,29.5 109.5,29.5C 109.5,26.1667 109.5,22.8333 109.5,19.5 Z"/></g>
<g><path style="opacity:1" fill="#e5ebef" d="M 189.5,19.5 C 189.5,22.8333 189.5,26.1667 189.5,29.5C 186.167,29.5 182.833,29.5 179.5,29.5C 179.5,26.1667 179.5,22.8333 179.5,19.5C 182.833,19.5 186.167,19.5 189.5,19.5 Z"/></g>
<g><path style="opacity:1" fill="#202026" d="M 189.5,19.5 C 192.833,19.5 196.167,19.5 199.5,19.5C 199.5,22.8333 199.5,26.1667 199.5,29.5C 196.167,29.5 192.833,29.5 189.5,29.5C 189.5,26.1667 189.5,22.8333 189.5,19.5 Z"/></g>
<g><path style="opacity:1" fill="#309d57" d="M 199.5,19.5 C 202.833,19.5 206.167,19.5 209.5,19.5C 209.5,29.5 209.5,39.5 209.5,49.5C 206.167,49.5 202.833,49.5 199.5,49.5C 199.5,52.8333 199.5,56.1667 199.5,59.5C 196.167,59.5 192.833,59.5 189.5,59.5C 189.5,62.8333 189.5,66.1667 189.5,69.5C 186.167,69.5 182.833,69.5 179.5,69.5C 179.5,66.1667 179.5,62.8333 179.5,59.5C 179.5,52.8333 179.5,46.1667 179.5,39.5C 182.833,39.5 186.167,39.5 189.5,39.5C 189.5,36.1667 189.5,32.8333 189.5,29.5C 192.833,29.5 196.167,29.5 199.5,29.5C 199.5,26.1667 199.5,22.8333 199.5,19.5 Z"/></g>
<g><path style="opacity:1" fill="#202026" d="M 209.5,19.5 C 212.833,19.5 216.167,19.5 219.5,19.5C 219.5,36.1667 219.5,52.8333 219.5,69.5C 216.167,69.5 212.833,69.5 209.5,69.5C 209.5,62.8333 209.5,56.1667 209.5,49.5C 209.5,39.5 209.5,29.5 209.5,19.5 Z"/></g>
<g><path style="opacity:1" fill="#e5ebef" d="M 219.5,19.5 C 222.833,19.5 226.167,19.5 229.5,19.5C 229.5,36.1667 229.5,52.8333 229.5,69.5C 226.167,69.5 222.833,69.5 219.5,69.5C 219.5,52.8333 219.5,36.1667 219.5,19.5 Z"/></g>
<g><path style="opacity:1" fill="#202026" d="M 109.5,29.5 C 112.833,29.5 116.167,29.5 119.5,29.5C 119.5,32.8333 119.5,36.1667 119.5,39.5C 116.167,39.5 112.833,39.5 109.5,39.5C 109.5,36.1667 109.5,32.8333 109.5,29.5 Z"/></g>
<g><path style="opacity:1" fill="#e5ebef" d="M 119.5,29.5 C 122.833,29.5 126.167,29.5 129.5,29.5C 129.5,32.8333 129.5,36.1667 129.5,39.5C 126.167,39.5 122.833,39.5 119.5,39.5C 119.5,36.1667 119.5,32.8333 119.5,29.5 Z"/></g>
<g><path style="opacity:1" fill="#e5ebef" d="M 179.5,29.5 C 179.5,32.8333 179.5,36.1667 179.5,39.5C 176.167,39.5 172.833,39.5 169.5,39.5C 169.5,36.1667 169.5,32.8333 169.5,29.5C 172.833,29.5 176.167,29.5 179.5,29.5 Z"/></g>
<g><path style="opacity:1" fill="#202026" d="M 179.5,29.5 C 182.833,29.5 186.167,29.5 189.5,29.5C 189.5,32.8333 189.5,36.1667 189.5,39.5C 186.167,39.5 182.833,39.5 179.5,39.5C 179.5,36.1667 179.5,32.8333 179.5,29.5 Z"/></g>
<g><path style="opacity:1" fill="#202026" d="M 119.5,39.5 C 122.833,39.5 126.167,39.5 129.5,39.5C 129.5,42.8333 129.5,46.1667 129.5,49.5C 142.833,49.5 156.167,49.5 169.5,49.5C 169.5,46.1667 169.5,42.8333 169.5,39.5C 172.833,39.5 176.167,39.5 179.5,39.5C 179.5,46.1667 179.5,52.8333 179.5,59.5C 159.5,59.5 139.5,59.5 119.5,59.5C 119.5,52.8333 119.5,46.1667 119.5,39.5 Z"/></g>
<g><path style="opacity:1" fill="#e5ebef" d="M 129.5,39.5 C 142.833,39.5 156.167,39.5 169.5,39.5C 169.5,42.8333 169.5,46.1667 169.5,49.5C 156.167,49.5 142.833,49.5 129.5,49.5C 129.5,46.1667 129.5,42.8333 129.5,39.5 Z"/></g>
<g><path style="opacity:1" fill="#307659" d="M 89.5,49.5 C 92.8333,49.5 96.1667,49.5 99.5,49.5C 99.5,52.8333 99.5,56.1667 99.5,59.5C 102.833,59.5 106.167,59.5 109.5,59.5C 109.5,62.8333 109.5,66.1667 109.5,69.5C 109.5,72.8333 109.5,76.1667 109.5,79.5C 106.167,79.5 102.833,79.5 99.5,79.5C 99.5,76.1667 99.5,72.8333 99.5,69.5C 96.1667,69.5 92.8333,69.5 89.5,69.5C 89.5,62.8333 89.5,56.1667 89.5,49.5 Z"/></g>
<g><path style="opacity:1" fill="#307659" d="M 209.5,49.5 C 209.5,56.1667 209.5,62.8333 209.5,69.5C 206.167,69.5 202.833,69.5 199.5,69.5C 199.5,72.8333 199.5,76.1667 199.5,79.5C 196.167,79.5 192.833,79.5 189.5,79.5C 189.5,76.1667 189.5,72.8333 189.5,69.5C 189.5,66.1667 189.5,62.8333 189.5,59.5C 192.833,59.5 196.167,59.5 199.5,59.5C 199.5,56.1667 199.5,52.8333 199.5,49.5C 202.833,49.5 206.167,49.5 209.5,49.5 Z"/></g>
<g><path style="opacity:1" fill="#e16b46" d="M 119.5,59.5 C 139.5,59.5 159.5,59.5 179.5,59.5C 179.5,62.8333 179.5,66.1667 179.5,69.5C 176.167,69.5 172.833,69.5 169.5,69.5C 156.167,69.5 142.833,69.5 129.5,69.5C 126.167,69.5 122.833,69.5 119.5,69.5C 119.5,66.1667 119.5,62.8333 119.5,59.5 Z"/></g>
<g><path style="opacity:1" fill="#a9b2b9" d="M 109.5,69.5 C 112.833,69.5 116.167,69.5 119.5,69.5C 119.5,72.8333 119.5,76.1667 119.5,79.5C 116.167,79.5 112.833,79.5 109.5,79.5C 109.5,76.1667 109.5,72.8333 109.5,69.5 Z"/></g>
<g><path style="opacity:1" fill="#309d57" d="M 119.5,69.5 C 122.833,69.5 126.167,69.5 129.5,69.5C 129.5,72.8333 129.5,76.1667 129.5,79.5C 126.167,79.5 122.833,79.5 119.5,79.5C 119.5,76.1667 119.5,72.8333 119.5,69.5 Z"/></g>
<g><path style="opacity:1" fill="#e5ebef" d="M 129.5,69.5 C 142.833,69.5 156.167,69.5 169.5,69.5C 169.5,72.8333 169.5,76.1667 169.5,79.5C 156.167,79.5 142.833,79.5 129.5,79.5C 129.5,76.1667 129.5,72.8333 129.5,69.5 Z"/></g>
<g><path style="opacity:1" fill="#309d57" d="M 169.5,69.5 C 172.833,69.5 176.167,69.5 179.5,69.5C 179.5,72.8333 179.5,76.1667 179.5,79.5C 176.167,79.5 172.833,79.5 169.5,79.5C 169.5,76.1667 169.5,72.8333 169.5,69.5 Z"/></g>
<g><path style="opacity:1" fill="#a9b2b9" d="M 179.5,69.5 C 182.833,69.5 186.167,69.5 189.5,69.5C 189.5,72.8333 189.5,76.1667 189.5,79.5C 186.167,79.5 182.833,79.5 179.5,79.5C 179.5,76.1667 179.5,72.8333 179.5,69.5 Z"/></g>
<g><path style="opacity:1" fill="#202026" d="M 209.5,69.5 C 209.5,76.1667 209.5,82.8333 209.5,89.5C 206.167,89.5 202.833,89.5 199.5,89.5C 199.5,86.1667 199.5,82.8333 199.5,79.5C 199.5,76.1667 199.5,72.8333 199.5,69.5C 202.833,69.5 206.167,69.5 209.5,69.5 Z"/></g>
<g><path style="opacity:1" fill="#e5ebef" d="M 209.5,69.5 C 212.833,69.5 216.167,69.5 219.5,69.5C 219.5,76.1667 219.5,82.8333 219.5,89.5C 216.167,89.5 212.833,89.5 209.5,89.5C 209.5,82.8333 209.5,76.1667 209.5,69.5 Z"/></g>
<g><path style="opacity:1" fill="#e5ebef" d="M 69.5,79.5 C 69.5,89.5 69.5,99.5 69.5,109.5C 66.1667,109.5 62.8333,109.5 59.5,109.5C 59.5,99.5 59.5,89.5 59.5,79.5C 62.8333,79.5 66.1667,79.5 69.5,79.5 Z"/></g>
<g><path style="opacity:1" fill="#202026" d="M 69.5,79.5 C 72.8333,79.5 76.1667,79.5 79.5,79.5C 79.5,86.1667 79.5,92.8333 79.5,99.5C 79.5,102.833 79.5,106.167 79.5,109.5C 76.1667,109.5 72.8333,109.5 69.5,109.5C 69.5,99.5 69.5,89.5 69.5,79.5 Z"/></g>
<g><path style="opacity:1" fill="#309d57" d="M 79.5,79.5 C 86.1667,79.5 92.8333,79.5 99.5,79.5C 99.5,82.8333 99.5,86.1667 99.5,89.5C 96.1667,89.5 92.8333,89.5 89.5,89.5C 89.5,92.8333 89.5,96.1667 89.5,99.5C 86.1667,99.5 82.8333,99.5 79.5,99.5C 79.5,92.8333 79.5,86.1667 79.5,79.5 Z"/></g>
<g><path style="opacity:1" fill="#eac761" d="M 99.5,79.5 C 102.833,79.5 106.167,79.5 109.5,79.5C 109.5,82.8333 109.5,86.1667 109.5,89.5C 106.167,89.5 102.833,89.5 99.5,89.5C 99.5,86.1667 99.5,82.8333 99.5,79.5 Z"/></g>
<g><path style="opacity:1" fill="#e5ebef" d="M 109.5,79.5 C 112.833,79.5 116.167,79.5 119.5,79.5C 122.833,79.5 126.167,79.5 129.5,79.5C 129.5,82.8333 129.5,86.1667 129.5,89.5C 122.833,89.5 116.167,89.5 109.5,89.5C 109.5,86.1667 109.5,82.8333 109.5,79.5 Z"/></g>
<g><path style="opacity:1" fill="#e16b46" d="M 129.5,79.5 C 142.833,79.5 156.167,79.5 169.5,79.5C 169.5,82.8333 169.5,86.1667 169.5,89.5C 176.167,89.5 182.833,89.5 189.5,89.5C 192.833,89.5 196.167,89.5 199.5,89.5C 199.5,92.8333 199.5,96.1667 199.5,99.5C 202.833,99.5 206.167,99.5 209.5,99.5C 209.5,102.833 209.5,106.167 209.5,109.5C 212.833,109.5 216.167,109.5 219.5,109.5C 219.5,129.5 219.5,149.5 219.5,169.5C 216.167,169.5 212.833,169.5 209.5,169.5C 209.5,176.167 209.5,182.833 209.5,189.5C 206.167,189.5 202.833,189.5 199.5,189.5C 199.5,192.833 199.5,196.167 199.5,199.5C 199.5,202.833 199.5,206.167 199.5,209.5C 196.167,209.5 192.833,209.5 189.5,209.5C 189.5,206.167 189.5,202.833 189.5,199.5C 189.5,196.167 189.5,192.833 189.5,189.5C 189.5,186.167 189.5,182.833 189.5,179.5C 189.5,176.167 189.5,172.833 189.5,169.5C 189.5,166.167 189.5,162.833 189.5,159.5C 189.5,149.5 189.5,139.5 189.5,129.5C 186.167,129.5 182.833,129.5 179.5,129.5C 179.5,126.167 179.5,122.833 179.5,119.5C 176.167,119.5 172.833,119.5 169.5,119.5C 169.5,122.833 169.5,126.167 169.5,129.5C 156.167,129.5 142.833,129.5 129.5,129.5C 129.5,126.167 129.5,122.833 129.5,119.5C 126.167,119.5 122.833,119.5 119.5,119.5C 119.5,122.833 119.5,126.167 119.5,129.5C 116.167,129.5 112.833,129.5 109.5,129.5C 109.5,139.5 109.5,149.5 109.5,159.5C 109.5,162.833 109.5,166.167 109.5,169.5C 109.5,172.833 109.5,176.167 109.5,179.5C 109.5,182.833 109.5,186.167 109.5,189.5C 109.5,192.833 109.5,196.167 109.5,199.5C 109.5,202.833 109.5,206.167 109.5,209.5C 106.167,209.5 102.833,209.5 99.5,209.5C 99.5,206.167 99.5,202.833 99.5,199.5C 99.5,196.167 99.5,192.833 99.5,189.5C 96.1667,189.5 92.8333,189.5 89.5,189.5C 89.5,182.833 89.5,176.167 89.5,169.5C 86.1667,169.5 82.8333,169.5 79.5,169.5C 79.5,159.5 79.5,149.5 79.5,139.5C 79.5,136.167 79.5,132.833 79.5,129.5C 82.8333,129.5 86.1667,129.5 89.5,129.5C 89.5,126.167 89.5,122.833 89.5,119.5C 92.8333,119.5 96.1667,119.5 99.5,119.5C 99.5,116.167 99.5,112.833 99.5,109.5C 102.833,109.5 106.167,109.5 109.5,109.5C 109.5,102.833 109.5,96.1667 109.5,89.5C 116.167,89.5 122.833,89.5 129.5,89.5C 129.5,86.1667 129.5,82.8333 129.5,79.5 Z"/></g>
<g><path style="opacity:1" fill="#e5ebef" d="M 169.5,79.5 C 172.833,79.5 176.167,79.5 179.5,79.5C 182.833,79.5 186.167,79.5 189.5,79.5C 189.5,82.8333 189.5,86.1667 189.5,89.5C 182.833,89.5 176.167,89.5 169.5,89.5C 169.5,86.1667 169.5,82.8333 169.5,79.5 Z"/></g>
<g><path style="opacity:1" fill="#309d57" d="M 189.5,79.5 C 192.833,79.5 196.167,79.5 199.5,79.5C 199.5,82.8333 199.5,86.1667 199.5,89.5C 196.167,89.5 192.833,89.5 189.5,89.5C 189.5,86.1667 189.5,82.8333 189.5,79.5 Z"/></g>
<g><path style="opacity:1" fill="#eac761" d="M 99.5,89.5 C 99.5,92.8333 99.5,96.1667 99.5,99.5C 96.1667,99.5 92.8333,99.5 89.5,99.5C 89.5,96.1667 89.5,92.8333 89.5,89.5C 92.8333,89.5 96.1667,89.5 99.5,89.5 Z"/></g>
<g><path style="opacity:1" fill="#dca146" d="M 99.5,89.5 C 102.833,89.5 106.167,89.5 109.5,89.5C 109.5,96.1667 109.5,102.833 109.5,109.5C 106.167,109.5 102.833,109.5 99.5,109.5C 96.1667,109.5 92.8333,109.5 89.5,109.5C 89.5,106.167 89.5,102.833 89.5,99.5C 92.8333,99.5 96.1667,99.5 99.5,99.5C 99.5,96.1667 99.5,92.8333 99.5,89.5 Z"/></g>
<g><path style="opacity:1" fill="#307659" d="M 199.5,89.5 C 202.833,89.5 206.167,89.5 209.5,89.5C 209.5,92.8333 209.5,96.1667 209.5,99.5C 206.167,99.5 202.833,99.5 199.5,99.5C 199.5,96.1667 199.5,92.8333 199.5,89.5 Z"/></g>
<g><path style="opacity:1" fill="#202026" d="M 209.5,89.5 C 212.833,89.5 216.167,89.5 219.5,89.5C 219.5,96.1667 219.5,102.833 219.5,109.5C 216.167,109.5 212.833,109.5 209.5,109.5C 209.5,106.167 209.5,102.833 209.5,99.5C 209.5,96.1667 209.5,92.8333 209.5,89.5 Z"/></g>
<g><path style="opacity:1" fill="#e5ebef" d="M 219.5,89.5 C 222.833,89.5 226.167,89.5 229.5,89.5C 229.5,96.1667 229.5,102.833 229.5,109.5C 226.167,109.5 222.833,109.5 219.5,109.5C 219.5,102.833 219.5,96.1667 219.5,89.5 Z"/></g>
<g><path style="opacity:1" fill="#307659" d="M 79.5,99.5 C 82.8333,99.5 86.1667,99.5 89.5,99.5C 89.5,102.833 89.5,106.167 89.5,109.5C 86.1667,109.5 82.8333,109.5 79.5,109.5C 79.5,106.167 79.5,102.833 79.5,99.5 Z"/></g>
<g><path style="opacity:1" fill="#e5ebef" d="M 59.5,109.5 C 59.5,112.833 59.5,116.167 59.5,119.5C 56.1667,119.5 52.8333,119.5 49.5,119.5C 49.5,116.167 49.5,112.833 49.5,109.5C 52.8333,109.5 56.1667,109.5 59.5,109.5 Z"/></g>
<g><path style="opacity:1" fill="#202026" d="M 59.5,109.5 C 62.8333,109.5 66.1667,109.5 69.5,109.5C 69.5,112.833 69.5,116.167 69.5,119.5C 66.1667,119.5 62.8333,119.5 59.5,119.5C 59.5,116.167 59.5,112.833 59.5,109.5 Z"/></g>
<g><path style="opacity:1" fill="#309d57" d="M 69.5,109.5 C 72.8333,109.5 76.1667,109.5 79.5,109.5C 79.5,112.833 79.5,116.167 79.5,119.5C 76.1667,119.5 72.8333,119.5 69.5,119.5C 69.5,116.167 69.5,112.833 69.5,109.5 Z"/></g>
<g><path style="opacity:1" fill="#eac761" d="M 79.5,109.5 C 82.8333,109.5 86.1667,109.5 89.5,109.5C 89.5,112.833 89.5,116.167 89.5,119.5C 86.1667,119.5 82.8333,119.5 79.5,119.5C 79.5,116.167 79.5,112.833 79.5,109.5 Z"/></g>
<g><path style="opacity:1" fill="#307659" d="M 89.5,109.5 C 92.8333,109.5 96.1667,109.5 99.5,109.5C 99.5,112.833 99.5,116.167 99.5,119.5C 96.1667,119.5 92.8333,119.5 89.5,119.5C 89.5,116.167 89.5,112.833 89.5,109.5 Z"/></g>
<g><path style="opacity:1" fill="#202026" d="M 219.5,109.5 C 222.833,109.5 226.167,109.5 229.5,109.5C 229.5,139.5 229.5,169.5 229.5,199.5C 226.167,199.5 222.833,199.5 219.5,199.5C 219.5,189.5 219.5,179.5 219.5,169.5C 219.5,149.5 219.5,129.5 219.5,109.5 Z"/></g>
<g><path style="opacity:1" fill="#e5ebef" d="M 229.5,109.5 C 232.833,109.5 236.167,109.5 239.5,109.5C 239.5,139.5 239.5,169.5 239.5,199.5C 236.167,199.5 232.833,199.5 229.5,199.5C 229.5,169.5 229.5,139.5 229.5,109.5 Z"/></g>
<g><path style="opacity:1" fill="#e5ebef" d="M 49.5,119.5 C 49.5,122.833 49.5,126.167 49.5,129.5C 46.1667,129.5 42.8333,129.5 39.5,129.5C 39.5,126.167 39.5,122.833 39.5,119.5C 42.8333,119.5 46.1667,119.5 49.5,119.5 Z"/></g>
<g><path style="opacity:1" fill="#202026" d="M 49.5,119.5 C 52.8333,119.5 56.1667,119.5 59.5,119.5C 59.5,122.833 59.5,126.167 59.5,129.5C 56.1667,129.5 52.8333,129.5 49.5,129.5C 49.5,126.167 49.5,122.833 49.5,119.5 Z"/></g>
<g><path style="opacity:1" fill="#309d57" d="M 59.5,119.5 C 62.8333,119.5 66.1667,119.5 69.5,119.5C 69.5,122.833 69.5,126.167 69.5,129.5C 66.1667,129.5 62.8333,129.5 59.5,129.5C 59.5,126.167 59.5,122.833 59.5,119.5 Z"/></g>
<g><path style="opacity:1" fill="#eac761" d="M 69.5,119.5 C 72.8333,119.5 76.1667,119.5 79.5,119.5C 79.5,122.833 79.5,126.167 79.5,129.5C 76.1667,129.5 72.8333,129.5 69.5,129.5C 69.5,126.167 69.5,122.833 69.5,119.5 Z"/></g>
<g><path style="opacity:1" fill="#309d57" d="M 79.5,119.5 C 82.8333,119.5 86.1667,119.5 89.5,119.5C 89.5,122.833 89.5,126.167 89.5,129.5C 86.1667,129.5 82.8333,129.5 79.5,129.5C 79.5,126.167 79.5,122.833 79.5,119.5 Z"/></g>
<g><path style="opacity:1" fill="#edc399" d="M 129.5,129.5 C 126.167,129.5 122.833,129.5 119.5,129.5C 119.5,126.167 119.5,122.833 119.5,119.5C 122.833,119.5 126.167,119.5 129.5,119.5C 129.5,122.833 129.5,126.167 129.5,129.5 Z"/></g>
<g><path style="opacity:1" fill="#edc399" d="M 179.5,129.5 C 176.167,129.5 172.833,129.5 169.5,129.5C 169.5,126.167 169.5,122.833 169.5,119.5C 172.833,119.5 176.167,119.5 179.5,119.5C 179.5,122.833 179.5,126.167 179.5,129.5 Z"/></g>
<g><path style="opacity:1" fill="#e5ebef" d="M 49.5,129.5 C 52.8333,129.5 56.1667,129.5 59.5,129.5C 59.5,132.833 59.5,136.167 59.5,139.5C 56.1667,139.5 52.8333,139.5 49.5,139.5C 49.5,136.167 49.5,132.833 49.5,129.5 Z"/></g>
<g><path style="opacity:1" fill="#202026" d="M 59.5,129.5 C 62.8333,129.5 66.1667,129.5 69.5,129.5C 69.5,132.833 69.5,136.167 69.5,139.5C 66.1667,139.5 62.8333,139.5 59.5,139.5C 59.5,136.167 59.5,132.833 59.5,129.5 Z"/></g>
<g><path style="opacity:1" fill="#309d57" d="M 69.5,129.5 C 72.8333,129.5 76.1667,129.5 79.5,129.5C 79.5,132.833 79.5,136.167 79.5,139.5C 76.1667,139.5 72.8333,139.5 69.5,139.5C 69.5,136.167 69.5,132.833 69.5,129.5 Z"/></g>
<g><path style="opacity:1" fill="#edc399" d="M 119.5,129.5 C 119.5,136.167 119.5,142.833 119.5,149.5C 119.5,152.833 119.5,156.167 119.5,159.5C 116.167,159.5 112.833,159.5 109.5,159.5C 109.5,149.5 109.5,139.5 109.5,129.5C 112.833,129.5 116.167,129.5 119.5,129.5 Z"/></g>
<g><path style="opacity:1" fill="#202026" d="M 119.5,129.5 C 122.833,129.5 126.167,129.5 129.5,129.5C 129.5,136.167 129.5,142.833 129.5,149.5C 126.167,149.5 122.833,149.5 119.5,149.5C 119.5,142.833 119.5,136.167 119.5,129.5 Z"/></g>
<g><path style="opacity:1" fill="#edc399" d="M 129.5,129.5 C 142.833,129.5 156.167,129.5 169.5,129.5C 169.5,136.167 169.5,142.833 169.5,149.5C 169.5,152.833 169.5,156.167 169.5,159.5C 172.833,159.5 176.167,159.5 179.5,159.5C 179.5,162.833 179.5,166.167 179.5,169.5C 179.5,172.833 179.5,176.167 179.5,179.5C 172.833,179.5 166.167,179.5 159.5,179.5C 152.833,179.5 146.167,179.5 139.5,179.5C 132.833,179.5 126.167,179.5 119.5,179.5C 119.5,176.167 119.5,172.833 119.5,169.5C 119.5,166.167 119.5,162.833 119.5,159.5C 122.833,159.5 126.167,159.5 129.5,159.5C 129.5,156.167 129.5,152.833 129.5,149.5C 129.5,142.833 129.5,136.167 129.5,129.5 Z"/></g>
<g><path style="opacity:1" fill="#202026" d="M 169.5,129.5 C 172.833,129.5 176.167,129.5 179.5,129.5C 179.5,136.167 179.5,142.833 179.5,149.5C 176.167,149.5 172.833,149.5 169.5,149.5C 169.5,142.833 169.5,136.167 169.5,129.5 Z"/></g>
<g><path style="opacity:1" fill="#edc399" d="M 179.5,129.5 C 182.833,129.5 186.167,129.5 189.5,129.5C 189.5,139.5 189.5,149.5 189.5,159.5C 186.167,159.5 182.833,159.5 179.5,159.5C 179.5,156.167 179.5,152.833 179.5,149.5C 179.5,142.833 179.5,136.167 179.5,129.5 Z"/></g>
<g><path style="opacity:1" fill="#e5ebef" d="M 59.5,139.5 C 62.8333,139.5 66.1667,139.5 69.5,139.5C 69.5,159.5 69.5,179.5 69.5,199.5C 66.1667,199.5 62.8333,199.5 59.5,199.5C 59.5,179.5 59.5,159.5 59.5,139.5 Z"/></g>
<g><path style="opacity:1" fill="#202026" d="M 69.5,139.5 C 72.8333,139.5 76.1667,139.5 79.5,139.5C 79.5,149.5 79.5,159.5 79.5,169.5C 79.5,179.5 79.5,189.5 79.5,199.5C 76.1667,199.5 72.8333,199.5 69.5,199.5C 69.5,179.5 69.5,159.5 69.5,139.5 Z"/></g>
<g><path style="opacity:1" fill="#378897" d="M 119.5,149.5 C 122.833,149.5 126.167,149.5 129.5,149.5C 129.5,152.833 129.5,156.167 129.5,159.5C 126.167,159.5 122.833,159.5 119.5,159.5C 119.5,156.167 119.5,152.833 119.5,149.5 Z"/></g>
<g><path style="opacity:1" fill="#378897" d="M 169.5,149.5 C 172.833,149.5 176.167,149.5 179.5,149.5C 179.5,152.833 179.5,156.167 179.5,159.5C 176.167,159.5 172.833,159.5 169.5,159.5C 169.5,156.167 169.5,152.833 169.5,149.5 Z"/></g>
<g><path style="opacity:1" fill="#d07565" d="M 109.5,159.5 C 112.833,159.5 116.167,159.5 119.5,159.5C 119.5,162.833 119.5,166.167 119.5,169.5C 116.167,169.5 112.833,169.5 109.5,169.5C 109.5,166.167 109.5,162.833 109.5,159.5 Z"/></g>
<g><path style="opacity:1" fill="#202026" d="M 139.5,159.5 C 146.167,159.5 152.833,159.5 159.5,159.5C 159.5,162.833 159.5,166.167 159.5,169.5C 152.833,169.5 146.167,169.5 139.5,169.5C 139.5,166.167 139.5,162.833 139.5,159.5 Z"/></g>
<g><path style="opacity:1" fill="#d07565" d="M 179.5,159.5 C 182.833,159.5 186.167,159.5 189.5,159.5C 189.5,162.833 189.5,166.167 189.5,169.5C 186.167,169.5 182.833,169.5 179.5,169.5C 179.5,166.167 179.5,162.833 179.5,159.5 Z"/></g>
<g><path style="opacity:1" fill="#a65644" d="M 79.5,169.5 C 82.8333,169.5 86.1667,169.5 89.5,169.5C 89.5,176.167 89.5,182.833 89.5,189.5C 92.8333,189.5 96.1667,189.5 99.5,189.5C 99.5,192.833 99.5,196.167 99.5,199.5C 96.1667,199.5 92.8333,199.5 89.5,199.5C 89.5,202.833 89.5,206.167 89.5,209.5C 86.1667,209.5 82.8333,209.5 79.5,209.5C 79.5,216.167 79.5,222.833 79.5,229.5C 76.1667,229.5 72.8333,229.5 69.5,229.5C 69.5,219.5 69.5,209.5 69.5,199.5C 72.8333,199.5 76.1667,199.5 79.5,199.5C 79.5,189.5 79.5,179.5 79.5,169.5 Z"/></g>
<g><path style="opacity:1" fill="#202026" d="M 109.5,169.5 C 112.833,169.5 116.167,169.5 119.5,169.5C 119.5,172.833 119.5,176.167 119.5,179.5C 116.167,179.5 112.833,179.5 109.5,179.5C 109.5,176.167 109.5,172.833 109.5,169.5 Z"/></g>
<g><path style="opacity:1" fill="#202026" d="M 179.5,169.5 C 182.833,169.5 186.167,169.5 189.5,169.5C 189.5,172.833 189.5,176.167 189.5,179.5C 186.167,179.5 182.833,179.5 179.5,179.5C 179.5,176.167 179.5,172.833 179.5,169.5 Z"/></g>
<g><path style="opacity:1" fill="#a65644" d="M 219.5,169.5 C 219.5,179.5 219.5,189.5 219.5,199.5C 222.833,199.5 226.167,199.5 229.5,199.5C 229.5,209.5 229.5,219.5 229.5,229.5C 226.167,229.5 222.833,229.5 219.5,229.5C 219.5,222.833 219.5,216.167 219.5,209.5C 216.167,209.5 212.833,209.5 209.5,209.5C 209.5,206.167 209.5,202.833 209.5,199.5C 206.167,199.5 202.833,199.5 199.5,199.5C 199.5,196.167 199.5,192.833 199.5,189.5C 202.833,189.5 206.167,189.5 209.5,189.5C 209.5,182.833 209.5,176.167 209.5,169.5C 212.833,169.5 216.167,169.5 219.5,169.5 Z"/></g>
<g><path style="opacity:1" fill="#a9b2b9" d="M 109.5,179.5 C 112.833,179.5 116.167,179.5 119.5,179.5C 119.5,182.833 119.5,186.167 119.5,189.5C 116.167,189.5 112.833,189.5 109.5,189.5C 109.5,186.167 109.5,182.833 109.5,179.5 Z"/></g>
<g><path style="opacity:1" fill="#202026" d="M 119.5,179.5 C 126.167,179.5 132.833,179.5 139.5,179.5C 139.5,182.833 139.5,186.167 139.5,189.5C 132.833,189.5 126.167,189.5 119.5,189.5C 119.5,186.167 119.5,182.833 119.5,179.5 Z"/></g>
<g><path style="opacity:1" fill="#d8a065" d="M 139.5,179.5 C 146.167,179.5 152.833,179.5 159.5,179.5C 159.5,182.833 159.5,186.167 159.5,189.5C 152.833,189.5 146.167,189.5 139.5,189.5C 139.5,186.167 139.5,182.833 139.5,179.5 Z"/></g>
<g><path style="opacity:1" fill="#202026" d="M 159.5,179.5 C 166.167,179.5 172.833,179.5 179.5,179.5C 179.5,182.833 179.5,186.167 179.5,189.5C 172.833,189.5 166.167,189.5 159.5,189.5C 159.5,186.167 159.5,182.833 159.5,179.5 Z"/></g>
<g><path style="opacity:1" fill="#a9b2b9" d="M 179.5,179.5 C 182.833,179.5 186.167,179.5 189.5,179.5C 189.5,182.833 189.5,186.167 189.5,189.5C 186.167,189.5 182.833,189.5 179.5,189.5C 179.5,186.167 179.5,182.833 179.5,179.5 Z"/></g>
<g><path style="opacity:1" fill="#e5ebef" d="M 109.5,189.5 C 112.833,189.5 116.167,189.5 119.5,189.5C 119.5,192.833 119.5,196.167 119.5,199.5C 116.167,199.5 112.833,199.5 109.5,199.5C 109.5,196.167 109.5,192.833 109.5,189.5 Z"/></g>
<g><path style="opacity:1" fill="#309d57" d="M 119.5,189.5 C 126.167,189.5 132.833,189.5 139.5,189.5C 139.5,192.833 139.5,196.167 139.5,199.5C 139.5,202.833 139.5,206.167 139.5,209.5C 136.167,209.5 132.833,209.5 129.5,209.5C 129.5,206.167 129.5,202.833 129.5,199.5C 126.167,199.5 122.833,199.5 119.5,199.5C 119.5,196.167 119.5,192.833 119.5,189.5 Z"/></g>
<g><path style="opacity:1" fill="#eac761" d="M 139.5,189.5 C 146.167,189.5 152.833,189.5 159.5,189.5C 159.5,192.833 159.5,196.167 159.5,199.5C 152.833,199.5 146.167,199.5 139.5,199.5C 139.5,196.167 139.5,192.833 139.5,189.5 Z"/></g>
<g><path style="opacity:1" fill="#309d57" d="M 159.5,189.5 C 166.167,189.5 172.833,189.5 179.5,189.5C 179.5,192.833 179.5,196.167 179.5,199.5C 176.167,199.5 172.833,199.5 169.5,199.5C 169.5,202.833 169.5,206.167 169.5,209.5C 166.167,209.5 162.833,209.5 159.5,209.5C 159.5,206.167 159.5,202.833 159.5,199.5C 159.5,196.167 159.5,192.833 159.5,189.5 Z"/></g>
<g><path style="opacity:1" fill="#e5ebef" d="M 179.5,189.5 C 182.833,189.5 186.167,189.5 189.5,189.5C 189.5,192.833 189.5,196.167 189.5,199.5C 186.167,199.5 182.833,199.5 179.5,199.5C 179.5,196.167 179.5,192.833 179.5,189.5 Z"/></g>
<g><path style="opacity:1" fill="#e5ebef" d="M 59.5,199.5 C 59.5,212.833 59.5,226.167 59.5,239.5C 56.1667,239.5 52.8333,239.5 49.5,239.5C 49.5,226.167 49.5,212.833 49.5,199.5C 52.8333,199.5 56.1667,199.5 59.5,199.5 Z"/></g>
<g><path style="opacity:1" fill="#202026" d="M 59.5,199.5 C 62.8333,199.5 66.1667,199.5 69.5,199.5C 69.5,209.5 69.5,219.5 69.5,229.5C 69.5,232.833 69.5,236.167 69.5,239.5C 66.1667,239.5 62.8333,239.5 59.5,239.5C 59.5,226.167 59.5,212.833 59.5,199.5 Z"/></g>
<g><path style="opacity:1" fill="#202026" d="M 99.5,199.5 C 99.5,202.833 99.5,206.167 99.5,209.5C 96.1667,209.5 92.8333,209.5 89.5,209.5C 89.5,206.167 89.5,202.833 89.5,199.5C 92.8333,199.5 96.1667,199.5 99.5,199.5 Z"/></g>
<g><path style="opacity:1" fill="#a9b2b9" d="M 109.5,199.5 C 112.833,199.5 116.167,199.5 119.5,199.5C 119.5,202.833 119.5,206.167 119.5,209.5C 116.167,209.5 112.833,209.5 109.5,209.5C 109.5,206.167 109.5,202.833 109.5,199.5 Z"/></g>
<g><path style="opacity:1" fill="#e5ebef" d="M 119.5,199.5 C 122.833,199.5 126.167,199.5 129.5,199.5C 129.5,202.833 129.5,206.167 129.5,209.5C 126.167,209.5 122.833,209.5 119.5,209.5C 119.5,206.167 119.5,202.833 119.5,199.5 Z"/></g>
<g><path style="opacity:1" fill="#595770" d="M 139.5,199.5 C 146.167,199.5 152.833,199.5 159.5,199.5C 159.5,202.833 159.5,206.167 159.5,209.5C 152.833,209.5 146.167,209.5 139.5,209.5C 139.5,206.167 139.5,202.833 139.5,199.5 Z"/></g>
<g><path style="opacity:1" fill="#e5ebef" d="M 179.5,199.5 C 179.5,202.833 179.5,206.167 179.5,209.5C 176.167,209.5 172.833,209.5 169.5,209.5C 169.5,206.167 169.5,202.833 169.5,199.5C 172.833,199.5 176.167,199.5 179.5,199.5 Z"/></g>
<g><path style="opacity:1" fill="#a9b2b9" d="M 179.5,199.5 C 182.833,199.5 186.167,199.5 189.5,199.5C 189.5,202.833 189.5,206.167 189.5,209.5C 186.167,209.5 182.833,209.5 179.5,209.5C 179.5,206.167 179.5,202.833 179.5,199.5 Z"/></g>
<g><path style="opacity:1" fill="#202026" d="M 199.5,199.5 C 202.833,199.5 206.167,199.5 209.5,199.5C 209.5,202.833 209.5,206.167 209.5,209.5C 206.167,209.5 202.833,209.5 199.5,209.5C 199.5,206.167 199.5,202.833 199.5,199.5 Z"/></g>
<g><path style="opacity:1" fill="#202026" d="M 229.5,199.5 C 232.833,199.5 236.167,199.5 239.5,199.5C 239.5,209.5 239.5,219.5 239.5,229.5C 236.167,229.5 232.833,229.5 229.5,229.5C 229.5,219.5 229.5,209.5 229.5,199.5 Z"/></g>
<g><path style="opacity:1" fill="#e5ebef" d="M 239.5,199.5 C 242.833,199.5 246.167,199.5 249.5,199.5C 249.5,209.5 249.5,219.5 249.5,229.5C 246.167,229.5 242.833,229.5 239.5,229.5C 239.5,219.5 239.5,209.5 239.5,199.5 Z"/></g>
<g><path style="opacity:1" fill="#202026" d="M 89.5,209.5 C 89.5,212.833 89.5,216.167 89.5,219.5C 89.5,222.833 89.5,226.167 89.5,229.5C 86.1667,229.5 82.8333,229.5 79.5,229.5C 79.5,222.833 79.5,216.167 79.5,209.5C 82.8333,209.5 86.1667,209.5 89.5,209.5 Z"/></g>
<g><path style="opacity:1" fill="#309d57" d="M 89.5,209.5 C 92.8333,209.5 96.1667,209.5 99.5,209.5C 102.833,209.5 106.167,209.5 109.5,209.5C 109.5,212.833 109.5,216.167 109.5,219.5C 102.833,219.5 96.1667,219.5 89.5,219.5C 89.5,216.167 89.5,212.833 89.5,209.5 Z"/></g>
<g><path style="opacity:1" fill="#202026" d="M 109.5,209.5 C 112.833,209.5 116.167,209.5 119.5,209.5C 119.5,212.833 119.5,216.167 119.5,219.5C 119.5,222.833 119.5,226.167 119.5,229.5C 116.167,229.5 112.833,229.5 109.5,229.5C 109.5,226.167 109.5,222.833 109.5,219.5C 109.5,216.167 109.5,212.833 109.5,209.5 Z"/></g>
<g><path style="opacity:1" fill="#309d57" d="M 119.5,209.5 C 122.833,209.5 126.167,209.5 129.5,209.5C 129.5,212.833 129.5,216.167 129.5,219.5C 126.167,219.5 122.833,219.5 119.5,219.5C 119.5,216.167 119.5,212.833 119.5,209.5 Z"/></g>
<g><path style="opacity:1" fill="#595770" d="M 129.5,209.5 C 132.833,209.5 136.167,209.5 139.5,209.5C 139.5,212.833 139.5,216.167 139.5,219.5C 136.167,219.5 132.833,219.5 129.5,219.5C 129.5,216.167 129.5,212.833 129.5,209.5 Z"/></g>
<g><path style="opacity:1" fill="#eac761" d="M 139.5,209.5 C 146.167,209.5 152.833,209.5 159.5,209.5C 159.5,212.833 159.5,216.167 159.5,219.5C 152.833,219.5 146.167,219.5 139.5,219.5C 139.5,216.167 139.5,212.833 139.5,209.5 Z"/></g>
<g><path style="opacity:1" fill="#595770" d="M 159.5,209.5 C 162.833,209.5 166.167,209.5 169.5,209.5C 169.5,212.833 169.5,216.167 169.5,219.5C 166.167,219.5 162.833,219.5 159.5,219.5C 159.5,216.167 159.5,212.833 159.5,209.5 Z"/></g>
<g><path style="opacity:1" fill="#309d57" d="M 169.5,209.5 C 172.833,209.5 176.167,209.5 179.5,209.5C 179.5,212.833 179.5,216.167 179.5,219.5C 176.167,219.5 172.833,219.5 169.5,219.5C 169.5,216.167 169.5,212.833 169.5,209.5 Z"/></g>
<g><path style="opacity:1" fill="#202026" d="M 179.5,209.5 C 182.833,209.5 186.167,209.5 189.5,209.5C 189.5,212.833 189.5,216.167 189.5,219.5C 189.5,222.833 189.5,226.167 189.5,229.5C 186.167,229.5 182.833,229.5 179.5,229.5C 179.5,226.167 179.5,222.833 179.5,219.5C 179.5,216.167 179.5,212.833 179.5,209.5 Z"/></g>
<g><path style="opacity:1" fill="#309d57" d="M 189.5,209.5 C 192.833,209.5 196.167,209.5 199.5,209.5C 202.833,209.5 206.167,209.5 209.5,209.5C 209.5,212.833 209.5,216.167 209.5,219.5C 202.833,219.5 196.167,219.5 189.5,219.5C 189.5,216.167 189.5,212.833 189.5,209.5 Z"/></g>
<g><path style="opacity:1" fill="#202026" d="M 209.5,209.5 C 212.833,209.5 216.167,209.5 219.5,209.5C 219.5,216.167 219.5,222.833 219.5,229.5C 216.167,229.5 212.833,229.5 209.5,229.5C 209.5,226.167 209.5,222.833 209.5,219.5C 209.5,216.167 209.5,212.833 209.5,209.5 Z"/></g>
<g><path style="opacity:1" fill="#595770" d="M 89.5,219.5 C 96.1667,219.5 102.833,219.5 109.5,219.5C 109.5,222.833 109.5,226.167 109.5,229.5C 102.833,229.5 96.1667,229.5 89.5,229.5C 89.5,226.167 89.5,222.833 89.5,219.5 Z"/></g>
<g><path style="opacity:1" fill="#e5ebef" d="M 119.5,219.5 C 122.833,219.5 126.167,219.5 129.5,219.5C 129.5,222.833 129.5,226.167 129.5,229.5C 126.167,229.5 122.833,229.5 119.5,229.5C 119.5,226.167 119.5,222.833 119.5,219.5 Z"/></g>
<g><path style="opacity:1" fill="#a9b2b9" d="M 129.5,219.5 C 132.833,219.5 136.167,219.5 139.5,219.5C 139.5,222.833 139.5,226.167 139.5,229.5C 136.167,229.5 132.833,229.5 129.5,229.5C 129.5,226.167 129.5,222.833 129.5,219.5 Z"/></g>
<g><path style="opacity:1" fill="#309d57" d="M 139.5,219.5 C 146.167,219.5 152.833,219.5 159.5,219.5C 159.5,222.833 159.5,226.167 159.5,229.5C 152.833,229.5 146.167,229.5 139.5,229.5C 139.5,226.167 139.5,222.833 139.5,219.5 Z"/></g>
<g><path style="opacity:1" fill="#a9b2b9" d="M 159.5,219.5 C 162.833,219.5 166.167,219.5 169.5,219.5C 169.5,222.833 169.5,226.167 169.5,229.5C 166.167,229.5 162.833,229.5 159.5,229.5C 159.5,226.167 159.5,222.833 159.5,219.5 Z"/></g>
<g><path style="opacity:1" fill="#e5ebef" d="M 169.5,219.5 C 172.833,219.5 176.167,219.5 179.5,219.5C 179.5,222.833 179.5,226.167 179.5,229.5C 176.167,229.5 172.833,229.5 169.5,229.5C 169.5,226.167 169.5,222.833 169.5,219.5 Z"/></g>
<g><path style="opacity:1" fill="#595770" d="M 189.5,219.5 C 196.167,219.5 202.833,219.5 209.5,219.5C 209.5,222.833 209.5,226.167 209.5,229.5C 202.833,229.5 196.167,229.5 189.5,229.5C 189.5,226.167 189.5,222.833 189.5,219.5 Z"/></g>
<g><path style="opacity:1" fill="#e16b46" d="M 69.5,229.5 C 72.8333,229.5 76.1667,229.5 79.5,229.5C 79.5,232.833 79.5,236.167 79.5,239.5C 82.8333,239.5 86.1667,239.5 89.5,239.5C 89.5,242.833 89.5,246.167 89.5,249.5C 86.1667,249.5 82.8333,249.5 79.5,249.5C 79.5,252.833 79.5,256.167 79.5,259.5C 82.8333,259.5 86.1667,259.5 89.5,259.5C 89.5,262.833 89.5,266.167 89.5,269.5C 82.8333,269.5 76.1667,269.5 69.5,269.5C 69.5,266.167 69.5,262.833 69.5,259.5C 66.1667,259.5 62.8333,259.5 59.5,259.5C 59.5,252.833 59.5,246.167 59.5,239.5C 62.8333,239.5 66.1667,239.5 69.5,239.5C 69.5,236.167 69.5,232.833 69.5,229.5 Z"/></g>
<g><path style="opacity:1" fill="#a65644" d="M 79.5,229.5 C 82.8333,229.5 86.1667,229.5 89.5,229.5C 89.5,232.833 89.5,236.167 89.5,239.5C 86.1667,239.5 82.8333,239.5 79.5,239.5C 79.5,236.167 79.5,232.833 79.5,229.5 Z"/></g>
<g><path style="opacity:1" fill="#202026" d="M 89.5,229.5 C 96.1667,229.5 102.833,229.5 109.5,229.5C 109.5,232.833 109.5,236.167 109.5,239.5C 109.5,242.833 109.5,246.167 109.5,249.5C 112.833,249.5 116.167,249.5 119.5,249.5C 119.5,252.833 119.5,256.167 119.5,259.5C 119.5,262.833 119.5,266.167 119.5,269.5C 116.167,269.5 112.833,269.5 109.5,269.5C 109.5,266.167 109.5,262.833 109.5,259.5C 106.167,259.5 102.833,259.5 99.5,259.5C 99.5,262.833 99.5,266.167 99.5,269.5C 96.1667,269.5 92.8333,269.5 89.5,269.5C 89.5,266.167 89.5,262.833 89.5,259.5C 89.5,256.167 89.5,252.833 89.5,249.5C 92.8333,249.5 96.1667,249.5 99.5,249.5C 99.5,246.167 99.5,242.833 99.5,239.5C 96.1667,239.5 92.8333,239.5 89.5,239.5C 89.5,236.167 89.5,232.833 89.5,229.5 Z"/></g>
<g><path style="opacity:1" fill="#e5ebef" d="M 109.5,229.5 C 112.833,229.5 116.167,229.5 119.5,229.5C 119.5,232.833 119.5,236.167 119.5,239.5C 116.167,239.5 112.833,239.5 109.5,239.5C 109.5,236.167 109.5,232.833 109.5,229.5 Z"/></g>
<g><path style="opacity:1" fill="#a9b2b9" d="M 119.5,229.5 C 122.833,229.5 126.167,229.5 129.5,229.5C 129.5,232.833 129.5,236.167 129.5,239.5C 126.167,239.5 122.833,239.5 119.5,239.5C 119.5,236.167 119.5,232.833 119.5,229.5 Z"/></g>
<g><path style="opacity:1" fill="#e5ebef" d="M 129.5,229.5 C 132.833,229.5 136.167,229.5 139.5,229.5C 146.167,229.5 152.833,229.5 159.5,229.5C 162.833,229.5 166.167,229.5 169.5,229.5C 169.5,232.833 169.5,236.167 169.5,239.5C 166.167,239.5 162.833,239.5 159.5,239.5C 152.833,239.5 146.167,239.5 139.5,239.5C 136.167,239.5 132.833,239.5 129.5,239.5C 129.5,236.167 129.5,232.833 129.5,229.5 Z"/></g>
<g><path style="opacity:1" fill="#a9b2b9" d="M 169.5,229.5 C 172.833,229.5 176.167,229.5 179.5,229.5C 179.5,232.833 179.5,236.167 179.5,239.5C 176.167,239.5 172.833,239.5 169.5,239.5C 169.5,236.167 169.5,232.833 169.5,229.5 Z"/></g>
<g><path style="opacity:1" fill="#e5ebef" d="M 179.5,229.5 C 182.833,229.5 186.167,229.5 189.5,229.5C 189.5,232.833 189.5,236.167 189.5,239.5C 186.167,239.5 182.833,239.5 179.5,239.5C 179.5,236.167 179.5,232.833 179.5,229.5 Z"/></g>
<g><path style="opacity:1" fill="#202026" d="M 189.5,229.5 C 196.167,229.5 202.833,229.5 209.5,229.5C 209.5,232.833 209.5,236.167 209.5,239.5C 212.833,239.5 216.167,239.5 219.5,239.5C 219.5,242.833 219.5,246.167 219.5,249.5C 212.833,249.5 206.167,249.5 199.5,249.5C 199.5,252.833 199.5,256.167 199.5,259.5C 196.167,259.5 192.833,259.5 189.5,259.5C 189.5,262.833 189.5,266.167 189.5,269.5C 186.167,269.5 182.833,269.5 179.5,269.5C 179.5,266.167 179.5,262.833 179.5,259.5C 179.5,256.167 179.5,252.833 179.5,249.5C 182.833,249.5 186.167,249.5 189.5,249.5C 189.5,246.167 189.5,242.833 189.5,239.5C 189.5,236.167 189.5,232.833 189.5,229.5 Z"/></g>
<g><path style="opacity:1" fill="#a65644" d="M 209.5,229.5 C 212.833,229.5 216.167,229.5 219.5,229.5C 219.5,232.833 219.5,236.167 219.5,239.5C 216.167,239.5 212.833,239.5 209.5,239.5C 209.5,236.167 209.5,232.833 209.5,229.5 Z"/></g>
<g><path style="opacity:1" fill="#202026" d="M 219.5,229.5 C 222.833,229.5 226.167,229.5 229.5,229.5C 229.5,232.833 229.5,236.167 229.5,239.5C 226.167,239.5 222.833,239.5 219.5,239.5C 219.5,236.167 219.5,232.833 219.5,229.5 Z"/></g>
<g><path style="opacity:1" fill="#e5ebef" d="M 229.5,229.5 C 232.833,229.5 236.167,229.5 239.5,229.5C 239.5,232.833 239.5,236.167 239.5,239.5C 236.167,239.5 232.833,239.5 229.5,239.5C 229.5,236.167 229.5,232.833 229.5,229.5 Z"/></g>
<g><path style="opacity:1" fill="#e5ebef" d="M 49.5,239.5 C 49.5,246.167 49.5,252.833 49.5,259.5C 46.1667,259.5 42.8333,259.5 39.5,259.5C 39.5,252.833 39.5,246.167 39.5,239.5C 42.8333,239.5 46.1667,239.5 49.5,239.5 Z"/></g>
<g><path style="opacity:1" fill="#202026" d="M 49.5,239.5 C 52.8333,239.5 56.1667,239.5 59.5,239.5C 59.5,246.167 59.5,252.833 59.5,259.5C 56.1667,259.5 52.8333,259.5 49.5,259.5C 49.5,252.833 49.5,246.167 49.5,239.5 Z"/></g>
<g><path style="opacity:1" fill="#a65644" d="M 89.5,239.5 C 92.8333,239.5 96.1667,239.5 99.5,239.5C 99.5,242.833 99.5,246.167 99.5,249.5C 96.1667,249.5 92.8333,249.5 89.5,249.5C 89.5,246.167 89.5,242.833 89.5,239.5 Z"/></g>
<g><path style="opacity:1" fill="#307659" d="M 109.5,239.5 C 112.833,239.5 116.167,239.5 119.5,239.5C 119.5,242.833 119.5,246.167 119.5,249.5C 116.167,249.5 112.833,249.5 109.5,249.5C 109.5,246.167 109.5,242.833 109.5,239.5 Z"/></g>
<g><path style="opacity:1" fill="#309d57" d="M 119.5,239.5 C 122.833,239.5 126.167,239.5 129.5,239.5C 129.5,242.833 129.5,246.167 129.5,249.5C 126.167,249.5 122.833,249.5 119.5,249.5C 119.5,246.167 119.5,242.833 119.5,239.5 Z"/></g>
<g><path style="opacity:1" fill="#307659" d="M 129.5,239.5 C 132.833,239.5 136.167,239.5 139.5,239.5C 139.5,242.833 139.5,246.167 139.5,249.5C 136.167,249.5 132.833,249.5 129.5,249.5C 129.5,246.167 129.5,242.833 129.5,239.5 Z"/></g>
<g><path style="opacity:1" fill="#309d57" d="M 139.5,239.5 C 146.167,239.5 152.833,239.5 159.5,239.5C 159.5,242.833 159.5,246.167 159.5,249.5C 152.833,249.5 146.167,249.5 139.5,249.5C 139.5,246.167 139.5,242.833 139.5,239.5 Z"/></g>
<g><path style="opacity:1" fill="#307659" d="M 159.5,239.5 C 162.833,239.5 166.167,239.5 169.5,239.5C 169.5,242.833 169.5,246.167 169.5,249.5C 166.167,249.5 162.833,249.5 159.5,249.5C 159.5,246.167 159.5,242.833 159.5,239.5 Z"/></g>
<g><path style="opacity:1" fill="#309d57" d="M 169.5,239.5 C 172.833,239.5 176.167,239.5 179.5,239.5C 179.5,242.833 179.5,246.167 179.5,249.5C 176.167,249.5 172.833,249.5 169.5,249.5C 169.5,246.167 169.5,242.833 169.5,239.5 Z"/></g>
<g><path style="opacity:1" fill="#307659" d="M 179.5,239.5 C 182.833,239.5 186.167,239.5 189.5,239.5C 189.5,242.833 189.5,246.167 189.5,249.5C 186.167,249.5 182.833,249.5 179.5,249.5C 179.5,246.167 179.5,242.833 179.5,239.5 Z"/></g>
<g><path style="opacity:1" fill="#e5ebef" d="M 219.5,239.5 C 222.833,239.5 226.167,239.5 229.5,239.5C 229.5,242.833 229.5,246.167 229.5,249.5C 226.167,249.5 222.833,249.5 219.5,249.5C 219.5,246.167 219.5,242.833 219.5,239.5 Z"/></g>
<g><path style="opacity:1" fill="#a65644" d="M 89.5,249.5 C 89.5,252.833 89.5,256.167 89.5,259.5C 86.1667,259.5 82.8333,259.5 79.5,259.5C 79.5,256.167 79.5,252.833 79.5,249.5C 82.8333,249.5 86.1667,249.5 89.5,249.5 Z"/></g>
<g><path style="opacity:1" fill="#595770" d="M 119.5,249.5 C 122.833,249.5 126.167,249.5 129.5,249.5C 132.833,249.5 136.167,249.5 139.5,249.5C 139.5,252.833 139.5,256.167 139.5,259.5C 132.833,259.5 126.167,259.5 119.5,259.5C 119.5,256.167 119.5,252.833 119.5,249.5 Z"/></g>
<g><path style="opacity:1" fill="#202026" d="M 139.5,249.5 C 146.167,249.5 152.833,249.5 159.5,249.5C 159.5,252.833 159.5,256.167 159.5,259.5C 159.5,262.833 159.5,266.167 159.5,269.5C 152.833,269.5 146.167,269.5 139.5,269.5C 139.5,266.167 139.5,262.833 139.5,259.5C 139.5,256.167 139.5,252.833 139.5,249.5 Z"/></g>
<g><path style="opacity:1" fill="#595770" d="M 159.5,249.5 C 162.833,249.5 166.167,249.5 169.5,249.5C 172.833,249.5 176.167,249.5 179.5,249.5C 179.5,252.833 179.5,256.167 179.5,259.5C 172.833,259.5 166.167,259.5 159.5,259.5C 159.5,256.167 159.5,252.833 159.5,249.5 Z"/></g>
<g><path style="opacity:1" fill="#e5ebef" d="M 219.5,249.5 C 219.5,252.833 219.5,256.167 219.5,259.5C 212.833,259.5 206.167,259.5 199.5,259.5C 199.5,256.167 199.5,252.833 199.5,249.5C 206.167,249.5 212.833,249.5 219.5,249.5 Z"/></g>
<g><path style="opacity:1" fill="#e5ebef" d="M 49.5,259.5 C 52.8333,259.5 56.1667,259.5 59.5,259.5C 59.5,262.833 59.5,266.167 59.5,269.5C 56.1667,269.5 52.8333,269.5 49.5,269.5C 49.5,266.167 49.5,262.833 49.5,259.5 Z"/></g>
<g><path style="opacity:1" fill="#202026" d="M 59.5,259.5 C 62.8333,259.5 66.1667,259.5 69.5,259.5C 69.5,262.833 69.5,266.167 69.5,269.5C 66.1667,269.5 62.8333,269.5 59.5,269.5C 59.5,266.167 59.5,262.833 59.5,259.5 Z"/></g>
<g><path style="opacity:1" fill="#e5ebef" d="M 109.5,269.5 C 106.167,269.5 102.833,269.5 99.5,269.5C 99.5,266.167 99.5,262.833 99.5,259.5C 102.833,259.5 106.167,259.5 109.5,259.5C 109.5,262.833 109.5,266.167 109.5,269.5 Z"/></g>
<g><path style="opacity:1" fill="#e5ebef" d="M 119.5,259.5 C 126.167,259.5 132.833,259.5 139.5,259.5C 139.5,262.833 139.5,266.167 139.5,269.5C 132.833,269.5 126.167,269.5 119.5,269.5C 119.5,266.167 119.5,262.833 119.5,259.5 Z"/></g>
<g><path style="opacity:1" fill="#754746" d="M 159.5,259.5 C 166.167,259.5 172.833,259.5 179.5,259.5C 179.5,262.833 179.5,266.167 179.5,269.5C 172.833,269.5 166.167,269.5 159.5,269.5C 159.5,266.167 159.5,262.833 159.5,259.5 Z"/></g>
<g><path style="opacity:1" fill="#e5ebef" d="M 199.5,259.5 C 199.5,262.833 199.5,266.167 199.5,269.5C 196.167,269.5 192.833,269.5 189.5,269.5C 189.5,266.167 189.5,262.833 189.5,259.5C 192.833,259.5 196.167,259.5 199.5,259.5 Z"/></g>
<g><path style="opacity:1" fill="#e5ebef" d="M 59.5,269.5 C 62.8333,269.5 66.1667,269.5 69.5,269.5C 69.5,272.833 69.5,276.167 69.5,279.5C 66.1667,279.5 62.8333,279.5 59.5,279.5C 59.5,276.167 59.5,272.833 59.5,269.5 Z"/></g>
<g><path style="opacity:1" fill="#202026" d="M 69.5,269.5 C 76.1667,269.5 82.8333,269.5 89.5,269.5C 89.5,272.833 89.5,276.167 89.5,279.5C 82.8333,279.5 76.1667,279.5 69.5,279.5C 69.5,276.167 69.5,272.833 69.5,269.5 Z"/></g>
<g><path style="opacity:1" fill="#e5ebef" d="M 89.5,269.5 C 92.8333,269.5 96.1667,269.5 99.5,269.5C 99.5,272.833 99.5,276.167 99.5,279.5C 96.1667,279.5 92.8333,279.5 89.5,279.5C 89.5,276.167 89.5,272.833 89.5,269.5 Z"/></g>
<g><path style="opacity:1" fill="#e5ebef" d="M 109.5,269.5 C 112.833,269.5 116.167,269.5 119.5,269.5C 119.5,272.833 119.5,276.167 119.5,279.5C 116.167,279.5 112.833,279.5 109.5,279.5C 109.5,276.167 109.5,272.833 109.5,269.5 Z"/></g>
<g><path style="opacity:1" fill="#202026" d="M 119.5,269.5 C 126.167,269.5 132.833,269.5 139.5,269.5C 139.5,272.833 139.5,276.167 139.5,279.5C 132.833,279.5 126.167,279.5 119.5,279.5C 119.5,276.167 119.5,272.833 119.5,269.5 Z"/></g>
<g><path style="opacity:1" fill="#e5ebef" d="M 139.5,269.5 C 146.167,269.5 152.833,269.5 159.5,269.5C 159.5,272.833 159.5,276.167 159.5,279.5C 152.833,279.5 146.167,279.5 139.5,279.5C 139.5,276.167 139.5,272.833 139.5,269.5 Z"/></g>
<g><path style="opacity:1" fill="#202026" d="M 159.5,269.5 C 166.167,269.5 172.833,269.5 179.5,269.5C 179.5,272.833 179.5,276.167 179.5,279.5C 172.833,279.5 166.167,279.5 159.5,279.5C 159.5,276.167 159.5,272.833 159.5,269.5 Z"/></g>
<g><path style="opacity:1" fill="#e5ebef" d="M 179.5,269.5 C 182.833,269.5 186.167,269.5 189.5,269.5C 189.5,272.833 189.5,276.167 189.5,279.5C 186.167,279.5 182.833,279.5 179.5,279.5C 179.5,276.167 179.5,272.833 179.5,269.5 Z"/></g>
<g><path style="opacity:1" fill="#e5ebef" d="M 69.5,279.5 C 76.1667,279.5 82.8333,279.5 89.5,279.5C 89.5,282.833 89.5,286.167 89.5,289.5C 82.8333,289.5 76.1667,289.5 69.5,289.5C 69.5,286.167 69.5,282.833 69.5,279.5 Z"/></g>
<g><path style="opacity:1" fill="#e5ebef" d="M 119.5,279.5 C 126.167,279.5 132.833,279.5 139.5,279.5C 139.5,282.833 139.5,286.167 139.5,289.5C 132.833,289.5 126.167,289.5 119.5,289.5C 119.5,286.167 119.5,282.833 119.5,279.5 Z"/></g>
<g><path style="opacity:1" fill="#e5ebef" d="M 159.5,279.5 C 166.167,279.5 172.833,279.5 179.5,279.5C 179.5,282.833 179.5,286.167 179.5,289.5C 172.833,289.5 166.167,289.5 159.5,289.5C 159.5,286.167 159.5,282.833 159.5,279.5 Z"/></g>
</svg>
