<?xml version="1.0" encoding="UTF-8"?>
<!DOCTYPE svg PUBLIC "-//W3C//DTD SVG 1.1//EN" "http://www.w3.org/Graphics/SVG/1.1/DTD/svg11.dtd">
<svg xmlns="http://www.w3.org/2000/svg" version="1.1" width="192px" height="192px" style="shape-rendering:geometricPrecision; text-rendering:geometricPrecision; image-rendering:optimizeQuality; fill-rule:evenodd; clip-rule:evenodd" xmlns:xlink="http://www.w3.org/1999/xlink">
<g><path style="opacity:1" fill="#309d57" d="M 35.5,-0.5 C 39.5,-0.5 43.5,-0.5 47.5,-0.5C 47.5,7.5 47.5,15.5 47.5,23.5C 51.5,23.5 55.5,23.5 59.5,23.5C 59.5,27.5 59.5,31.5 59.5,35.5C 59.5,39.5 59.5,43.5 59.5,47.5C 55.5,47.5 51.5,47.5 47.5,47.5C 43.5,47.5 39.5,47.5 35.5,47.5C 35.5,43.5 35.5,39.5 35.5,35.5C 31.5,35.5 27.5,35.5 23.5,35.5C 23.5,27.5 23.5,19.5 23.5,11.5C 27.5,11.5 31.5,11.5 35.5,11.5C 35.5,7.5 35.5,3.5 35.5,-0.5 Z"/></g>
<g><path style="opacity:1" fill="#309d57" d="M 143.5,-0.5 C 147.5,-0.5 151.5,-0.5 155.5,-0.5C 155.5,3.5 155.5,7.5 155.5,11.5C 159.5,11.5 163.5,11.5 167.5,11.5C 167.5,19.5 167.5,27.5 167.5,35.5C 163.5,35.5 159.5,35.5 155.5,35.5C 155.5,39.5 155.5,43.5 155.5,47.5C 151.5,47.5 147.5,47.5 143.5,47.5C 139.5,47.5 135.5,47.5 131.5,47.5C 131.5,43.5 131.5,39.5 131.5,35.5C 131.5,31.5 131.5,27.5 131.5,23.5C 135.5,23.5 139.5,23.5 143.5,23.5C 143.5,15.5 143.5,7.5 143.5,-0.5 Z"/></g>
<g><path style="opacity:1" fill="#307659" d="M 23.5,35.5 C 27.5,35.5 31.5,35.5 35.5,35.5C 35.5,39.5 35.5,43.5 35.5,47.5C 39.5,47.5 43.5,47.5 47.5,47.5C 47.5,51.5 47.5,55.5 47.5,59.5C 43.5,59.5 39.5,59.5 35.5,59.5C 31.5,59.5 27.5,59.5 23.5,59.5C 23.5,51.5 23.5,43.5 23.5,35.5 Z"/></g>
<g><path style="opacity:1" fill="#a65644" d="M 59.5,35.5 C 63.5,35.5 67.5,35.5 71.5,35.5C 71.5,39.5 71.5,43.5 71.5,47.5C 67.5,47.5 63.5,47.5 59.5,47.5C 59.5,43.5 59.5,39.5 59.5,35.5 Z"/></g>
<g><path style="opacity:1" fill="#e16b46" d="M 71.5,35.5 C 87.5,35.5 103.5,35.5 119.5,35.5C 119.5,39.5 119.5,43.5 119.5,47.5C 103.5,47.5 87.5,47.5 71.5,47.5C 71.5,43.5 71.5,39.5 71.5,35.5 Z"/></g>
<g><path style="opacity:1" fill="#a65644" d="M 119.5,35.5 C 123.5,35.5 127.5,35.5 131.5,35.5C 131.5,39.5 131.5,43.5 131.5,47.5C 127.5,47.5 123.5,47.5 119.5,47.5C 119.5,43.5 119.5,39.5 119.5,35.5 Z"/></g>
<g><path style="opacity:1" fill="#307659" d="M 167.5,35.5 C 167.5,43.5 167.5,51.5 167.5,59.5C 163.5,59.5 159.5,59.5 155.5,59.5C 151.5,59.5 147.5,59.5 143.5,59.5C 143.5,55.5 143.5,51.5 143.5,47.5C 147.5,47.5 151.5,47.5 155.5,47.5C 155.5,43.5 155.5,39.5 155.5,35.5C 159.5,35.5 163.5,35.5 167.5,35.5 Z"/></g>
<g><path style="opacity:1" fill="#a9b2b9" d="M 47.5,47.5 C 51.5,47.5 55.5,47.5 59.5,47.5C 59.5,51.5 59.5,55.5 59.5,59.5C 55.5,59.5 51.5,59.5 47.5,59.5C 47.5,55.5 47.5,51.5 47.5,47.5 Z"/></g>
<g><path style="opacity:1" fill="#309d57" d="M 59.5,47.5 C 63.5,47.5 67.5,47.5 71.5,47.5C 71.5,51.5 71.5,55.5 71.5,59.5C 67.5,59.5 63.5,59.5 59.5,59.5C 59.5,55.5 59.5,51.5 59.5,47.5 Z"/></g>
<g><path style="opacity:1" fill="#e5ebef" d="M 71.5,47.5 C 87.5,47.5 103.5,47.5 119.5,47.5C 119.5,51.5 119.5,55.5 119.5,59.5C 103.5,59.5 87.5,59.5 71.5,59.5C 71.5,55.5 71.5,51.5 71.5,47.5 Z"/></g>
<g><path style="opacity:1" fill="#309d57" d="M 119.5,47.5 C 123.5,47.5 127.5,47.5 131.5,47.5C 131.5,51.5 131.5,55.5 131.5,59.5C 127.5,59.5 123.5,59.5 119.5,59.5C 119.5,55.5 119.5,51.5 119.5,47.5 Z"/></g>
<g><path style="opacity:1" fill="#a9b2b9" d="M 131.5,47.5 C 135.5,47.5 139.5,47.5 143.5,47.5C 143.5,51.5 143.5,55.5 143.5,59.5C 139.5,59.5 135.5,59.5 131.5,59.5C 131.5,55.5 131.5,51.5 131.5,47.5 Z"/></g>
<g><path style="opacity:1" fill="#309d57" d="M 23.5,59.5 C 27.5,59.5 31.5,59.5 35.5,59.5C 35.5,63.5 35.5,67.5 35.5,71.5C 31.5,71.5 27.5,71.5 23.5,71.5C 23.5,75.5 23.5,79.5 23.5,83.5C 19.5,83.5 15.5,83.5 11.5,83.5C 11.5,75.5 11.5,67.5 11.5,59.5C 15.5,59.5 19.5,59.5 23.5,59.5 Z"/></g>
<g><path style="opacity:1" fill="#eac761" d="M 35.5,59.5 C 39.5,59.5 43.5,59.5 47.5,59.5C 47.5,63.5 47.5,67.5 47.5,71.5C 43.5,71.5 39.5,71.5 35.5,71.5C 35.5,67.5 35.5,63.5 35.5,59.5 Z"/></g>
<g><path style="opacity:1" fill="#e5ebef" d="M 47.5,59.5 C 51.5,59.5 55.5,59.5 59.5,59.5C 59.5,63.5 59.5,67.5 59.5,71.5C 55.5,71.5 51.5,71.5 47.5,71.5C 47.5,67.5 47.5,63.5 47.5,59.5 Z"/></g>
<g><path style="opacity:1" fill="#e16b46" d="M 59.5,59.5 C 63.5,59.5 67.5,59.5 71.5,59.5C 87.5,59.5 103.5,59.5 119.5,59.5C 123.5,59.5 127.5,59.5 131.5,59.5C 131.5,63.5 131.5,67.5 131.5,71.5C 135.5,71.5 139.5,71.5 143.5,71.5C 147.5,71.5 151.5,71.5 155.5,71.5C 155.5,67.5 155.5,63.5 155.5,59.5C 159.5,59.5 163.5,59.5 167.5,59.5C 167.5,67.5 167.5,75.5 167.5,83.5C 171.5,83.5 175.5,83.5 179.5,83.5C 179.5,111.5 179.5,139.5 179.5,167.5C 175.5,167.5 171.5,167.5 167.5,167.5C 167.5,171.5 167.5,175.5 167.5,179.5C 163.5,179.5 159.5,179.5 155.5,179.5C 155.5,183.5 155.5,187.5 155.5,191.5C 151.5,191.5 147.5,191.5 143.5,191.5C 143.5,187.5 143.5,183.5 143.5,179.5C 143.5,175.5 143.5,171.5 143.5,167.5C 143.5,163.5 143.5,159.5 143.5,155.5C 143.5,139.5 143.5,123.5 143.5,107.5C 139.5,107.5 135.5,107.5 131.5,107.5C 131.5,103.5 131.5,99.5 131.5,95.5C 127.5,95.5 123.5,95.5 119.5,95.5C 119.5,99.5 119.5,103.5 119.5,107.5C 103.5,107.5 87.5,107.5 71.5,107.5C 71.5,103.5 71.5,99.5 71.5,95.5C 67.5,95.5 63.5,95.5 59.5,95.5C 59.5,99.5 59.5,103.5 59.5,107.5C 55.5,107.5 51.5,107.5 47.5,107.5C 47.5,123.5 47.5,139.5 47.5,155.5C 47.5,159.5 47.5,163.5 47.5,167.5C 47.5,171.5 47.5,175.5 47.5,179.5C 47.5,183.5 47.5,187.5 47.5,191.5C 43.5,191.5 39.5,191.5 35.5,191.5C 35.5,187.5 35.5,183.5 35.5,179.5C 31.5,179.5 27.5,179.5 23.5,179.5C 23.5,175.5 23.5,171.5 23.5,167.5C 19.5,167.5 15.5,167.5 11.5,167.5C 11.5,151.5 11.5,135.5 11.5,119.5C 15.5,119.5 19.5,119.5 23.5,119.5C 23.5,115.5 23.5,111.5 23.5,107.5C 27.5,107.5 31.5,107.5 35.5,107.5C 35.5,103.5 35.5,99.5 35.5,95.5C 39.5,95.5 43.5,95.5 47.5,95.5C 47.5,87.5 47.5,79.5 47.5,71.5C 51.5,71.5 55.5,71.5 59.5,71.5C 59.5,67.5 59.5,63.5 59.5,59.5 Z"/></g>
<g><path style="opacity:1" fill="#e5ebef" d="M 131.5,59.5 C 135.5,59.5 139.5,59.5 143.5,59.5C 143.5,63.5 143.5,67.5 143.5,71.5C 139.5,71.5 135.5,71.5 131.5,71.5C 131.5,67.5 131.5,63.5 131.5,59.5 Z"/></g>
<g><path style="opacity:1" fill="#309d57" d="M 143.5,59.5 C 147.5,59.5 151.5,59.5 155.5,59.5C 155.5,63.5 155.5,67.5 155.5,71.5C 151.5,71.5 147.5,71.5 143.5,71.5C 143.5,67.5 143.5,63.5 143.5,59.5 Z"/></g>
<g><path style="opacity:1" fill="#eac761" d="M 35.5,71.5 C 35.5,75.5 35.5,79.5 35.5,83.5C 31.5,83.5 27.5,83.5 23.5,83.5C 23.5,79.5 23.5,75.5 23.5,71.5C 27.5,71.5 31.5,71.5 35.5,71.5 Z"/></g>
<g><path style="opacity:1" fill="#dca146" d="M 35.5,71.5 C 39.5,71.5 43.5,71.5 47.5,71.5C 47.5,79.5 47.5,87.5 47.5,95.5C 43.5,95.5 39.5,95.5 35.5,95.5C 31.5,95.5 27.5,95.5 23.5,95.5C 23.5,91.5 23.5,87.5 23.5,83.5C 27.5,83.5 31.5,83.5 35.5,83.5C 35.5,79.5 35.5,75.5 35.5,71.5 Z"/></g>
<g><path style="opacity:1" fill="#307659" d="M 11.5,83.5 C 15.5,83.5 19.5,83.5 23.5,83.5C 23.5,87.5 23.5,91.5 23.5,95.5C 19.5,95.5 15.5,95.5 11.5,95.5C 11.5,91.5 11.5,87.5 11.5,83.5 Z"/></g>
<g><path style="opacity:1" fill="#309d57" d="M -0.5,95.5 C 3.5,95.5 7.5,95.5 11.5,95.5C 11.5,99.5 11.5,103.5 11.5,107.5C 7.5,107.5 3.5,107.5 -0.5,107.5C -0.5,103.5 -0.5,99.5 -0.5,95.5 Z"/></g>
<g><path style="opacity:1" fill="#eac761" d="M 11.5,95.5 C 15.5,95.5 19.5,95.5 23.5,95.5C 23.5,99.5 23.5,103.5 23.5,107.5C 19.5,107.5 15.5,107.5 11.5,107.5C 11.5,103.5 11.5,99.5 11.5,95.5 Z"/></g>
<g><path style="opacity:1" fill="#309d57" d="M 23.5,95.5 C 27.5,95.5 31.5,95.5 35.5,95.5C 35.5,99.5 35.5,103.5 35.5,107.5C 31.5,107.5 27.5,107.5 23.5,107.5C 23.5,103.5 23.5,99.5 23.5,95.5 Z"/></g>
<g><path style="opacity:1" fill="#edc399" d="M 71.5,107.5 C 67.5,107.5 63.5,107.5 59.5,107.5C 59.5,103.5 59.5,99.5 59.5,95.5C 63.5,95.5 67.5,95.5 71.5,95.5C 71.5,99.5 71.5,103.5 71.5,107.5 Z"/></g>
<g><path style="opacity:1" fill="#edc399" d="M 131.5,107.5 C 127.5,107.5 123.5,107.5 119.5,107.5C 119.5,103.5 119.5,99.5 119.5,95.5C 123.5,95.5 127.5,95.5 131.5,95.5C 131.5,99.5 131.5,103.5 131.5,107.5 Z"/></g>
<g><path style="opacity:1" fill="#eac761" d="M -0.5,107.5 C 3.5,107.5 7.5,107.5 11.5,107.5C 11.5,111.5 11.5,115.5 11.5,119.5C 7.5,119.5 3.5,119.5 -0.5,119.5C -0.5,115.5 -0.5,111.5 -0.5,107.5 Z"/></g>
<g><path style="opacity:1" fill="#307659" d="M 11.5,107.5 C 15.5,107.5 19.5,107.5 23.5,107.5C 23.5,111.5 23.5,115.5 23.5,119.5C 19.5,119.5 15.5,119.5 11.5,119.5C 11.5,115.5 11.5,111.5 11.5,107.5 Z"/></g>
<g><path style="opacity:1" fill="#edc399" d="M 59.5,107.5 C 59.5,115.5 59.5,123.5 59.5,131.5C 59.5,135.5 59.5,139.5 59.5,143.5C 63.5,143.5 67.5,143.5 71.5,143.5C 71.5,139.5 71.5,135.5 71.5,131.5C 71.5,123.5 71.5,115.5 71.5,107.5C 87.5,107.5 103.5,107.5 119.5,107.5C 119.5,115.5 119.5,123.5 119.5,131.5C 119.5,135.5 119.5,139.5 119.5,143.5C 123.5,143.5 127.5,143.5 131.5,143.5C 131.5,139.5 131.5,135.5 131.5,131.5C 131.5,123.5 131.5,115.5 131.5,107.5C 135.5,107.5 139.5,107.5 143.5,107.5C 143.5,123.5 143.5,139.5 143.5,155.5C 139.5,155.5 135.5,155.5 131.5,155.5C 131.5,159.5 131.5,163.5 131.5,167.5C 123.5,167.5 115.5,167.5 107.5,167.5C 99.5,167.5 91.5,167.5 83.5,167.5C 75.5,167.5 67.5,167.5 59.5,167.5C 59.5,163.5 59.5,159.5 59.5,155.5C 55.5,155.5 51.5,155.5 47.5,155.5C 47.5,139.5 47.5,123.5 47.5,107.5C 51.5,107.5 55.5,107.5 59.5,107.5 Z"/></g>
<g><path style="opacity:1" fill="#202026" d="M 59.5,107.5 C 63.5,107.5 67.5,107.5 71.5,107.5C 71.5,115.5 71.5,123.5 71.5,131.5C 67.5,131.5 63.5,131.5 59.5,131.5C 59.5,123.5 59.5,115.5 59.5,107.5 Z"/></g>
<g><path style="opacity:1" fill="#202026" d="M 119.5,107.5 C 123.5,107.5 127.5,107.5 131.5,107.5C 131.5,115.5 131.5,123.5 131.5,131.5C 127.5,131.5 123.5,131.5 119.5,131.5C 119.5,123.5 119.5,115.5 119.5,107.5 Z"/></g>
<g><path style="opacity:1" fill="#378897" d="M 59.5,131.5 C 63.5,131.5 67.5,131.5 71.5,131.5C 71.5,135.5 71.5,139.5 71.5,143.5C 67.5,143.5 63.5,143.5 59.5,143.5C 59.5,139.5 59.5,135.5 59.5,131.5 Z"/></g>
<g><path style="opacity:1" fill="#378897" d="M 119.5,131.5 C 123.5,131.5 127.5,131.5 131.5,131.5C 131.5,135.5 131.5,139.5 131.5,143.5C 127.5,143.5 123.5,143.5 119.5,143.5C 119.5,139.5 119.5,135.5 119.5,131.5 Z"/></g>
<g><path style="opacity:1" fill="#202026" d="M 83.5,143.5 C 91.5,143.5 99.5,143.5 107.5,143.5C 107.5,147.5 107.5,151.5 107.5,155.5C 99.5,155.5 91.5,155.5 83.5,155.5C 83.5,151.5 83.5,147.5 83.5,143.5 Z"/></g>
<g><path style="opacity:1" fill="#d07565" d="M 47.5,155.5 C 51.5,155.5 55.5,155.5 59.5,155.5C 59.5,159.5 59.5,163.5 59.5,167.5C 55.5,167.5 51.5,167.5 47.5,167.5C 47.5,163.5 47.5,159.5 47.5,155.5 Z"/></g>
<g><path style="opacity:1" fill="#d07565" d="M 143.5,155.5 C 143.5,159.5 143.5,163.5 143.5,167.5C 139.5,167.5 135.5,167.5 131.5,167.5C 131.5,163.5 131.5,159.5 131.5,155.5C 135.5,155.5 139.5,155.5 143.5,155.5 Z"/></g>
<g><path style="opacity:1" fill="#a65644" d="M 11.5,167.5 C 15.5,167.5 19.5,167.5 23.5,167.5C 23.5,171.5 23.5,175.5 23.5,179.5C 27.5,179.5 31.5,179.5 35.5,179.5C 35.5,183.5 35.5,187.5 35.5,191.5C 27.5,191.5 19.5,191.5 11.5,191.5C 11.5,183.5 11.5,175.5 11.5,167.5 Z"/></g>
<g><path style="opacity:1" fill="#a9b2b9" d="M 47.5,167.5 C 51.5,167.5 55.5,167.5 59.5,167.5C 59.5,171.5 59.5,175.5 59.5,179.5C 55.5,179.5 51.5,179.5 47.5,179.5C 47.5,175.5 47.5,171.5 47.5,167.5 Z"/></g>
<g><path style="opacity:1" fill="#309d57" d="M 59.5,167.5 C 67.5,167.5 75.5,167.5 83.5,167.5C 83.5,171.5 83.5,175.5 83.5,179.5C 83.5,183.5 83.5,187.5 83.5,191.5C 79.5,191.5 75.5,191.5 71.5,191.5C 71.5,187.5 71.5,183.5 71.5,179.5C 67.5,179.5 63.5,179.5 59.5,179.5C 59.5,175.5 59.5,171.5 59.5,167.5 Z"/></g>
<g><path style="opacity:1" fill="#d8a065" d="M 83.5,167.5 C 91.5,167.5 99.5,167.5 107.5,167.5C 107.5,171.5 107.5,175.5 107.5,179.5C 99.5,179.5 91.5,179.5 83.5,179.5C 83.5,175.5 83.5,171.5 83.5,167.5 Z"/></g>
<g><path style="opacity:1" fill="#309d57" d="M 107.5,167.5 C 115.5,167.5 123.5,167.5 131.5,167.5C 131.5,171.5 131.5,175.5 131.5,179.5C 127.5,179.5 123.5,179.5 119.5,179.5C 119.5,183.5 119.5,187.5 119.5,191.5C 115.5,191.5 111.5,191.5 107.5,191.5C 107.5,187.5 107.5,183.5 107.5,179.5C 107.5,175.5 107.5,171.5 107.5,167.5 Z"/></g>
<g><path style="opacity:1" fill="#a9b2b9" d="M 131.5,167.5 C 135.5,167.5 139.5,167.5 143.5,167.5C 143.5,171.5 143.5,175.5 143.5,179.5C 139.5,179.5 135.5,179.5 131.5,179.5C 131.5,175.5 131.5,171.5 131.5,167.5 Z"/></g>
<g><path style="opacity:1" fill="#a65644" d="M 179.5,167.5 C 179.5,175.5 179.5,183.5 179.5,191.5C 171.5,191.5 163.5,191.5 155.5,191.5C 155.5,187.5 155.5,183.5 155.5,179.5C 159.5,179.5 163.5,179.5 167.5,179.5C 167.5,175.5 167.5,171.5 167.5,167.5C 171.5,167.5 175.5,167.5 179.5,167.5 Z"/></g>
<g><path style="opacity:1" fill="#e5ebef" d="M 47.5,179.5 C 51.5,179.5 55.5,179.5 59.5,179.5C 63.5,179.5 67.5,179.5 71.5,179.5C 71.5,183.5 71.5,187.5 71.5,191.5C 63.5,191.5 55.5,191.5 47.5,191.5C 47.5,187.5 47.5,183.5 47.5,179.5 Z"/></g>
<g><path style="opacity:1" fill="#eac761" d="M 83.5,179.5 C 91.5,179.5 99.5,179.5 107.5,179.5C 107.5,183.5 107.5,187.5 107.5,191.5C 99.5,191.5 91.5,191.5 83.5,191.5C 83.5,187.5 83.5,183.5 83.5,179.5 Z"/></g>
<g><path style="opacity:1" fill="#e5ebef" d="M 131.5,179.5 C 135.5,179.5 139.5,179.5 143.5,179.5C 143.5,183.5 143.5,187.5 143.5,191.5C 135.5,191.5 127.5,191.5 119.5,191.5C 119.5,187.5 119.5,183.5 119.5,179.5C 123.5,179.5 127.5,179.5 131.5,179.5 Z"/></g>
</svg>
