<?xml version="1.0" encoding="UTF-8"?>
<!DOCTYPE svg PUBLIC "-//W3C//DTD SVG 1.1//EN" "http://www.w3.org/Graphics/SVG/1.1/DTD/svg11.dtd">
<svg xmlns="http://www.w3.org/2000/svg" version="1.1" width="220px" height="220px" style="shape-rendering:geometricPrecision; text-rendering:geometricPrecision; image-rendering:optimizeQuality; fill-rule:evenodd; clip-rule:evenodd" xmlns:xlink="http://www.w3.org/1999/xlink">
<g><path style="opacity:1" fill="#e5ebef" d="M 49.5,-0.5 C 52.8333,-0.5 56.1667,-0.5 59.5,-0.5C 59.5,2.83333 59.5,6.16667 59.5,9.5C 56.1667,9.5 52.8333,9.5 49.5,9.5C 49.5,6.16667 49.5,2.83333 49.5,-0.5 Z"/></g>
<g><path style="opacity:1" fill="#e5ebef" d="M 159.5,-0.5 C 162.833,-0.5 166.167,-0.5 169.5,-0.5C 169.5,2.83333 169.5,6.16667 169.5,9.5C 166.167,9.5 162.833,9.5 159.5,9.5C 159.5,6.16667 159.5,2.83333 159.5,-0.5 Z"/></g>
<g><path style="opacity:1" fill="#e5ebef" d="M 49.5,9.5 C 49.5,12.8333 49.5,16.1667 49.5,19.5C 46.1667,19.5 42.8333,19.5 39.5,19.5C 39.5,16.1667 39.5,12.8333 39.5,9.5C 42.8333,9.5 46.1667,9.5 49.5,9.5 Z"/></g>
<g><path style="opacity:1" fill="#202026" d="M 49.5,9.5 C 52.8333,9.5 56.1667,9.5 59.5,9.5C 59.5,12.8333 59.5,16.1667 59.5,19.5C 56.1667,19.5 52.8333,19.5 49.5,19.5C 49.5,16.1667 49.5,12.8333 49.5,9.5 Z"/></g>
<g><path style="opacity:1" fill="#e5ebef" d="M 59.5,9.5 C 62.8333,9.5 66.1667,9.5 69.5,9.5C 69.5,12.8333 69.5,16.1667 69.5,19.5C 66.1667,19.5 62.8333,19.5 59.5,19.5C 59.5,16.1667 59.5,12.8333 59.5,9.5 Z"/></g>
<g><path style="opacity:1" fill="#e5ebef" d="M 159.5,9.5 C 159.5,12.8333 159.5,16.1667 159.5,19.5C 156.167,19.5 152.833,19.5 149.5,19.5C 149.5,16.1667 149.5,12.8333 149.5,9.5C 152.833,9.5 156.167,9.5 159.5,9.5 Z"/></g>
<g><path style="opacity:1" fill="#202026" d="M 159.5,9.5 C 162.833,9.5 166.167,9.5 169.5,9.5C 169.5,12.8333 169.5,16.1667 169.5,19.5C 166.167,19.5 162.833,19.5 159.5,19.5C 159.5,16.1667 159.5,12.8333 159.5,9.5 Z"/></g>
<g><path style="opacity:1" fill="#e5ebef" d="M 169.5,9.5 C 172.833,9.5 176.167,9.5 179.5,9.5C 179.5,12.8333 179.5,16.1667 179.5,19.5C 176.167,19.5 172.833,19.5 169.5,19.5C 169.5,16.1667 169.5,12.8333 169.5,9.5 Z"/></g>
<g><path style="opacity:1" fill="#e5ebef" d="M 39.5,19.5 C 39.5,39.5 39.5,59.5 39.5,79.5C 36.1667,79.5 32.8333,79.5 29.5,79.5C 29.5,59.5 29.5,39.5 29.5,19.5C 32.8333,19.5 36.1667,19.5 39.5,19.5 Z"/></g>
<g><path style="opacity:1" fill="#202026" d="M 39.5,19.5 C 42.8333,19.5 46.1667,19.5 49.5,19.5C 49.5,29.5 49.5,39.5 49.5,49.5C 49.5,56.1667 49.5,62.8333 49.5,69.5C 52.8333,69.5 56.1667,69.5 59.5,69.5C 59.5,72.8333 59.5,76.1667 59.5,79.5C 52.8333,79.5 46.1667,79.5 39.5,79.5C 39.5,59.5 39.5,39.5 39.5,19.5 Z"/></g>
<g><path style="opacity:1" fill="#309d57" d="M 49.5,19.5 C 52.8333,19.5 56.1667,19.5 59.5,19.5C 59.5,22.8333 59.5,26.1667 59.5,29.5C 62.8333,29.5 66.1667,29.5 69.5,29.5C 69.5,32.8333 69.5,36.1667 69.5,39.5C 72.8333,39.5 76.1667,39.5 79.5,39.5C 79.5,46.1667 79.5,52.8333 79.5,59.5C 79.5,62.8333 79.5,66.1667 79.5,69.5C 76.1667,69.5 72.8333,69.5 69.5,69.5C 69.5,66.1667 69.5,62.8333 69.5,59.5C 66.1667,59.5 62.8333,59.5 59.5,59.5C 59.5,56.1667 59.5,52.8333 59.5,49.5C 56.1667,49.5 52.8333,49.5 49.5,49.5C 49.5,39.5 49.5,29.5 49.5,19.5 Z"/></g>
<g><path style="opacity:1" fill="#202026" d="M 59.5,19.5 C 62.8333,19.5 66.1667,19.5 69.5,19.5C 69.5,22.8333 69.5,26.1667 69.5,29.5C 66.1667,29.5 62.8333,29.5 59.5,29.5C 59.5,26.1667 59.5,22.8333 59.5,19.5 Z"/></g>
<g><path style="opacity:1" fill="#e5ebef" d="M 69.5,19.5 C 72.8333,19.5 76.1667,19.5 79.5,19.5C 79.5,22.8333 79.5,26.1667 79.5,29.5C 76.1667,29.5 72.8333,29.5 69.5,29.5C 69.5,26.1667 69.5,22.8333 69.5,19.5 Z"/></g>
<g><path style="opacity:1" fill="#e5ebef" d="M 149.5,19.5 C 149.5,22.8333 149.5,26.1667 149.5,29.5C 146.167,29.5 142.833,29.5 139.5,29.5C 139.5,26.1667 139.5,22.8333 139.5,19.5C 142.833,19.5 146.167,19.5 149.5,19.5 Z"/></g>
<g><path style="opacity:1" fill="#202026" d="M 149.5,19.5 C 152.833,19.5 156.167,19.5 159.5,19.5C 159.5,22.8333 159.5,26.1667 159.5,29.5C 156.167,29.5 152.833,29.5 149.5,29.5C 149.5,26.1667 149.5,22.8333 149.5,19.5 Z"/></g>
<g><path style="opacity:1" fill="#309d57" d="M 159.5,19.5 C 162.833,19.5 166.167,19.5 169.5,19.5C 169.5,29.5 169.5,39.5 169.5,49.5C 166.167,49.5 162.833,49.5 159.5,49.5C 159.5,52.8333 159.5,56.1667 159.5,59.5C 156.167,59.5 152.833,59.5 149.5,59.5C 149.5,62.8333 149.5,66.1667 149.5,69.5C 146.167,69.5 142.833,69.5 139.5,69.5C 139.5,66.1667 139.5,62.8333 139.5,59.5C 139.5,52.8333 139.5,46.1667 139.5,39.5C 142.833,39.5 146.167,39.5 149.5,39.5C 149.5,36.1667 149.5,32.8333 149.5,29.5C 152.833,29.5 156.167,29.5 159.5,29.5C 159.5,26.1667 159.5,22.8333 159.5,19.5 Z"/></g>
<g><path style="opacity:1" fill="#202026" d="M 169.5,19.5 C 172.833,19.5 176.167,19.5 179.5,19.5C 179.5,36.1667 179.5,52.8333 179.5,69.5C 176.167,69.5 172.833,69.5 169.5,69.5C 169.5,62.8333 169.5,56.1667 169.5,49.5C 169.5,39.5 169.5,29.5 169.5,19.5 Z"/></g>
<g><path style="opacity:1" fill="#e5ebef" d="M 179.5,19.5 C 182.833,19.5 186.167,19.5 189.5,19.5C 189.5,36.1667 189.5,52.8333 189.5,69.5C 186.167,69.5 182.833,69.5 179.5,69.5C 179.5,52.8333 179.5,36.1667 179.5,19.5 Z"/></g>
<g><path style="opacity:1" fill="#202026" d="M 69.5,29.5 C 72.8333,29.5 76.1667,29.5 79.5,29.5C 79.5,32.8333 79.5,36.1667 79.5,39.5C 76.1667,39.5 72.8333,39.5 69.5,39.5C 69.5,36.1667 69.5,32.8333 69.5,29.5 Z"/></g>
<g><path style="opacity:1" fill="#e5ebef" d="M 79.5,29.5 C 82.8333,29.5 86.1667,29.5 89.5,29.5C 89.5,32.8333 89.5,36.1667 89.5,39.5C 86.1667,39.5 82.8333,39.5 79.5,39.5C 79.5,36.1667 79.5,32.8333 79.5,29.5 Z"/></g>
<g><path style="opacity:1" fill="#e5ebef" d="M 139.5,29.5 C 139.5,32.8333 139.5,36.1667 139.5,39.5C 136.167,39.5 132.833,39.5 129.5,39.5C 129.5,36.1667 129.5,32.8333 129.5,29.5C 132.833,29.5 136.167,29.5 139.5,29.5 Z"/></g>
<g><path style="opacity:1" fill="#202026" d="M 139.5,29.5 C 142.833,29.5 146.167,29.5 149.5,29.5C 149.5,32.8333 149.5,36.1667 149.5,39.5C 146.167,39.5 142.833,39.5 139.5,39.5C 139.5,36.1667 139.5,32.8333 139.5,29.5 Z"/></g>
<g><path style="opacity:1" fill="#202026" d="M 79.5,39.5 C 82.8333,39.5 86.1667,39.5 89.5,39.5C 89.5,42.8333 89.5,46.1667 89.5,49.5C 102.833,49.5 116.167,49.5 129.5,49.5C 129.5,46.1667 129.5,42.8333 129.5,39.5C 132.833,39.5 136.167,39.5 139.5,39.5C 139.5,46.1667 139.5,52.8333 139.5,59.5C 119.5,59.5 99.5,59.5 79.5,59.5C 79.5,52.8333 79.5,46.1667 79.5,39.5 Z"/></g>
<g><path style="opacity:1" fill="#e5ebef" d="M 89.5,39.5 C 102.833,39.5 116.167,39.5 129.5,39.5C 129.5,42.8333 129.5,46.1667 129.5,49.5C 116.167,49.5 102.833,49.5 89.5,49.5C 89.5,46.1667 89.5,42.8333 89.5,39.5 Z"/></g>
<g><path style="opacity:1" fill="#307659" d="M 49.5,49.5 C 52.8333,49.5 56.1667,49.5 59.5,49.5C 59.5,52.8333 59.5,56.1667 59.5,59.5C 62.8333,59.5 66.1667,59.5 69.5,59.5C 69.5,62.8333 69.5,66.1667 69.5,69.5C 69.5,72.8333 69.5,76.1667 69.5,79.5C 66.1667,79.5 62.8333,79.5 59.5,79.5C 59.5,76.1667 59.5,72.8333 59.5,69.5C 56.1667,69.5 52.8333,69.5 49.5,69.5C 49.5,62.8333 49.5,56.1667 49.5,49.5 Z"/></g>
<g><path style="opacity:1" fill="#307659" d="M 169.5,49.5 C 169.5,56.1667 169.5,62.8333 169.5,69.5C 166.167,69.5 162.833,69.5 159.5,69.5C 159.5,72.8333 159.5,76.1667 159.5,79.5C 156.167,79.5 152.833,79.5 149.5,79.5C 149.5,76.1667 149.5,72.8333 149.5,69.5C 149.5,66.1667 149.5,62.8333 149.5,59.5C 152.833,59.5 156.167,59.5 159.5,59.5C 159.5,56.1667 159.5,52.8333 159.5,49.5C 162.833,49.5 166.167,49.5 169.5,49.5 Z"/></g>
<g><path style="opacity:1" fill="#e16b46" d="M 79.5,59.5 C 99.5,59.5 119.5,59.5 139.5,59.5C 139.5,62.8333 139.5,66.1667 139.5,69.5C 136.167,69.5 132.833,69.5 129.5,69.5C 116.167,69.5 102.833,69.5 89.5,69.5C 86.1667,69.5 82.8333,69.5 79.5,69.5C 79.5,66.1667 79.5,62.8333 79.5,59.5 Z"/></g>
<g><path style="opacity:1" fill="#a9b2b9" d="M 69.5,69.5 C 72.8333,69.5 76.1667,69.5 79.5,69.5C 79.5,72.8333 79.5,76.1667 79.5,79.5C 76.1667,79.5 72.8333,79.5 69.5,79.5C 69.5,76.1667 69.5,72.8333 69.5,69.5 Z"/></g>
<g><path style="opacity:1" fill="#309d57" d="M 79.5,69.5 C 82.8333,69.5 86.1667,69.5 89.5,69.5C 89.5,72.8333 89.5,76.1667 89.5,79.5C 86.1667,79.5 82.8333,79.5 79.5,79.5C 79.5,76.1667 79.5,72.8333 79.5,69.5 Z"/></g>
<g><path style="opacity:1" fill="#e5ebef" d="M 89.5,69.5 C 102.833,69.5 116.167,69.5 129.5,69.5C 129.5,72.8333 129.5,76.1667 129.5,79.5C 116.167,79.5 102.833,79.5 89.5,79.5C 89.5,76.1667 89.5,72.8333 89.5,69.5 Z"/></g>
<g><path style="opacity:1" fill="#309d57" d="M 129.5,69.5 C 132.833,69.5 136.167,69.5 139.5,69.5C 139.5,72.8333 139.5,76.1667 139.5,79.5C 136.167,79.5 132.833,79.5 129.5,79.5C 129.5,76.1667 129.5,72.8333 129.5,69.5 Z"/></g>
<g><path style="opacity:1" fill="#a9b2b9" d="M 139.5,69.5 C 142.833,69.5 146.167,69.5 149.5,69.5C 149.5,72.8333 149.5,76.1667 149.5,79.5C 146.167,79.5 142.833,79.5 139.5,79.5C 139.5,76.1667 139.5,72.8333 139.5,69.5 Z"/></g>
<g><path style="opacity:1" fill="#202026" d="M 169.5,69.5 C 169.5,76.1667 169.5,82.8333 169.5,89.5C 166.167,89.5 162.833,89.5 159.5,89.5C 159.5,86.1667 159.5,82.8333 159.5,79.5C 159.5,76.1667 159.5,72.8333 159.5,69.5C 162.833,69.5 166.167,69.5 169.5,69.5 Z"/></g>
<g><path style="opacity:1" fill="#e5ebef" d="M 169.5,69.5 C 172.833,69.5 176.167,69.5 179.5,69.5C 179.5,76.1667 179.5,82.8333 179.5,89.5C 176.167,89.5 172.833,89.5 169.5,89.5C 169.5,82.8333 169.5,76.1667 169.5,69.5 Z"/></g>
<g><path style="opacity:1" fill="#e5ebef" d="M 29.5,79.5 C 29.5,89.5 29.5,99.5 29.5,109.5C 26.1667,109.5 22.8333,109.5 19.5,109.5C 19.5,99.5 19.5,89.5 19.5,79.5C 22.8333,79.5 26.1667,79.5 29.5,79.5 Z"/></g>
<g><path style="opacity:1" fill="#202026" d="M 29.5,79.5 C 32.8333,79.5 36.1667,79.5 39.5,79.5C 39.5,86.1667 39.5,92.8333 39.5,99.5C 39.5,102.833 39.5,106.167 39.5,109.5C 36.1667,109.5 32.8333,109.5 29.5,109.5C 29.5,99.5 29.5,89.5 29.5,79.5 Z"/></g>
<g><path style="opacity:1" fill="#309d57" d="M 39.5,79.5 C 46.1667,79.5 52.8333,79.5 59.5,79.5C 59.5,82.8333 59.5,86.1667 59.5,89.5C 56.1667,89.5 52.8333,89.5 49.5,89.5C 49.5,92.8333 49.5,96.1667 49.5,99.5C 46.1667,99.5 42.8333,99.5 39.5,99.5C 39.5,92.8333 39.5,86.1667 39.5,79.5 Z"/></g>
<g><path style="opacity:1" fill="#eac761" d="M 59.5,79.5 C 62.8333,79.5 66.1667,79.5 69.5,79.5C 69.5,82.8333 69.5,86.1667 69.5,89.5C 66.1667,89.5 62.8333,89.5 59.5,89.5C 59.5,86.1667 59.5,82.8333 59.5,79.5 Z"/></g>
<g><path style="opacity:1" fill="#e5ebef" d="M 69.5,79.5 C 72.8333,79.5 76.1667,79.5 79.5,79.5C 82.8333,79.5 86.1667,79.5 89.5,79.5C 89.5,82.8333 89.5,86.1667 89.5,89.5C 82.8333,89.5 76.1667,89.5 69.5,89.5C 69.5,86.1667 69.5,82.8333 69.5,79.5 Z"/></g>
<g><path style="opacity:1" fill="#e16b46" d="M 89.5,79.5 C 102.833,79.5 116.167,79.5 129.5,79.5C 129.5,82.8333 129.5,86.1667 129.5,89.5C 136.167,89.5 142.833,89.5 149.5,89.5C 152.833,89.5 156.167,89.5 159.5,89.5C 159.5,92.8333 159.5,96.1667 159.5,99.5C 162.833,99.5 166.167,99.5 169.5,99.5C 172.833,99.5 176.167,99.5 179.5,99.5C 179.5,119.5 179.5,139.5 179.5,159.5C 176.167,159.5 172.833,159.5 169.5,159.5C 169.5,166.167 169.5,172.833 169.5,179.5C 166.167,179.5 162.833,179.5 159.5,179.5C 159.5,182.833 159.5,186.167 159.5,189.5C 159.5,192.833 159.5,196.167 159.5,199.5C 156.167,199.5 152.833,199.5 149.5,199.5C 149.5,196.167 149.5,192.833 149.5,189.5C 149.5,186.167 149.5,182.833 149.5,179.5C 149.5,176.167 149.5,172.833 149.5,169.5C 149.5,166.167 149.5,162.833 149.5,159.5C 149.5,156.167 149.5,152.833 149.5,149.5C 149.5,139.5 149.5,129.5 149.5,119.5C 146.167,119.5 142.833,119.5 139.5,119.5C 139.5,116.167 139.5,112.833 139.5,109.5C 136.167,109.5 132.833,109.5 129.5,109.5C 129.5,112.833 129.5,116.167 129.5,119.5C 116.167,119.5 102.833,119.5 89.5,119.5C 89.5,116.167 89.5,112.833 89.5,109.5C 86.1667,109.5 82.8333,109.5 79.5,109.5C 79.5,112.833 79.5,116.167 79.5,119.5C 76.1667,119.5 72.8333,119.5 69.5,119.5C 69.5,129.5 69.5,139.5 69.5,149.5C 69.5,152.833 69.5,156.167 69.5,159.5C 69.5,162.833 69.5,166.167 69.5,169.5C 69.5,172.833 69.5,176.167 69.5,179.5C 69.5,182.833 69.5,186.167 69.5,189.5C 69.5,192.833 69.5,196.167 69.5,199.5C 66.1667,199.5 62.8333,199.5 59.5,199.5C 59.5,196.167 59.5,192.833 59.5,189.5C 59.5,186.167 59.5,182.833 59.5,179.5C 56.1667,179.5 52.8333,179.5 49.5,179.5C 49.5,172.833 49.5,166.167 49.5,159.5C 46.1667,159.5 42.8333,159.5 39.5,159.5C 39.5,152.833 39.5,146.167 39.5,139.5C 39.5,136.167 39.5,132.833 39.5,129.5C 42.8333,129.5 46.1667,129.5 49.5,129.5C 49.5,126.167 49.5,122.833 49.5,119.5C 52.8333,119.5 56.1667,119.5 59.5,119.5C 59.5,116.167 59.5,112.833 59.5,109.5C 62.8333,109.5 66.1667,109.5 69.5,109.5C 69.5,102.833 69.5,96.1667 69.5,89.5C 76.1667,89.5 82.8333,89.5 89.5,89.5C 89.5,86.1667 89.5,82.8333 89.5,79.5 Z"/></g>
<g><path style="opacity:1" fill="#e5ebef" d="M 129.5,79.5 C 132.833,79.5 136.167,79.5 139.5,79.5C 142.833,79.5 146.167,79.5 149.5,79.5C 149.5,82.8333 149.5,86.1667 149.5,89.5C 142.833,89.5 136.167,89.5 129.5,89.5C 129.5,86.1667 129.5,82.8333 129.5,79.5 Z"/></g>
<g><path style="opacity:1" fill="#309d57" d="M 149.5,79.5 C 152.833,79.5 156.167,79.5 159.5,79.5C 159.5,82.8333 159.5,86.1667 159.5,89.5C 156.167,89.5 152.833,89.5 149.5,89.5C 149.5,86.1667 149.5,82.8333 149.5,79.5 Z"/></g>
<g><path style="opacity:1" fill="#eac761" d="M 59.5,89.5 C 59.5,92.8333 59.5,96.1667 59.5,99.5C 56.1667,99.5 52.8333,99.5 49.5,99.5C 49.5,96.1667 49.5,92.8333 49.5,89.5C 52.8333,89.5 56.1667,89.5 59.5,89.5 Z"/></g>
<g><path style="opacity:1" fill="#dca146" d="M 59.5,89.5 C 62.8333,89.5 66.1667,89.5 69.5,89.5C 69.5,96.1667 69.5,102.833 69.5,109.5C 66.1667,109.5 62.8333,109.5 59.5,109.5C 56.1667,109.5 52.8333,109.5 49.5,109.5C 49.5,106.167 49.5,102.833 49.5,99.5C 52.8333,99.5 56.1667,99.5 59.5,99.5C 59.5,96.1667 59.5,92.8333 59.5,89.5 Z"/></g>
<g><path style="opacity:1" fill="#307659" d="M 159.5,89.5 C 162.833,89.5 166.167,89.5 169.5,89.5C 169.5,92.8333 169.5,96.1667 169.5,99.5C 166.167,99.5 162.833,99.5 159.5,99.5C 159.5,96.1667 159.5,92.8333 159.5,89.5 Z"/></g>
<g><path style="opacity:1" fill="#202026" d="M 169.5,89.5 C 172.833,89.5 176.167,89.5 179.5,89.5C 179.5,92.8333 179.5,96.1667 179.5,99.5C 176.167,99.5 172.833,99.5 169.5,99.5C 169.5,96.1667 169.5,92.8333 169.5,89.5 Z"/></g>
<g><path style="opacity:1" fill="#e5ebef" d="M 179.5,89.5 C 182.833,89.5 186.167,89.5 189.5,89.5C 189.5,92.8333 189.5,96.1667 189.5,99.5C 186.167,99.5 182.833,99.5 179.5,99.5C 179.5,96.1667 179.5,92.8333 179.5,89.5 Z"/></g>
<g><path style="opacity:1" fill="#307659" d="M 39.5,99.5 C 42.8333,99.5 46.1667,99.5 49.5,99.5C 49.5,102.833 49.5,106.167 49.5,109.5C 46.1667,109.5 42.8333,109.5 39.5,109.5C 39.5,106.167 39.5,102.833 39.5,99.5 Z"/></g>
<g><path style="opacity:1" fill="#202026" d="M 179.5,99.5 C 182.833,99.5 186.167,99.5 189.5,99.5C 189.5,126.167 189.5,152.833 189.5,179.5C 186.167,179.5 182.833,179.5 179.5,179.5C 179.5,172.833 179.5,166.167 179.5,159.5C 179.5,139.5 179.5,119.5 179.5,99.5 Z"/></g>
<g><path style="opacity:1" fill="#e5ebef" d="M 189.5,99.5 C 192.833,99.5 196.167,99.5 199.5,99.5C 199.5,126.167 199.5,152.833 199.5,179.5C 196.167,179.5 192.833,179.5 189.5,179.5C 189.5,152.833 189.5,126.167 189.5,99.5 Z"/></g>
<g><path style="opacity:1" fill="#e5ebef" d="M 19.5,109.5 C 19.5,112.833 19.5,116.167 19.5,119.5C 16.1667,119.5 12.8333,119.5 9.5,119.5C 9.5,116.167 9.5,112.833 9.5,109.5C 12.8333,109.5 16.1667,109.5 19.5,109.5 Z"/></g>
<g><path style="opacity:1" fill="#202026" d="M 19.5,109.5 C 22.8333,109.5 26.1667,109.5 29.5,109.5C 29.5,112.833 29.5,116.167 29.5,119.5C 26.1667,119.5 22.8333,119.5 19.5,119.5C 19.5,116.167 19.5,112.833 19.5,109.5 Z"/></g>
<g><path style="opacity:1" fill="#309d57" d="M 29.5,109.5 C 32.8333,109.5 36.1667,109.5 39.5,109.5C 39.5,112.833 39.5,116.167 39.5,119.5C 36.1667,119.5 32.8333,119.5 29.5,119.5C 29.5,116.167 29.5,112.833 29.5,109.5 Z"/></g>
<g><path style="opacity:1" fill="#eac761" d="M 39.5,109.5 C 42.8333,109.5 46.1667,109.5 49.5,109.5C 49.5,112.833 49.5,116.167 49.5,119.5C 46.1667,119.5 42.8333,119.5 39.5,119.5C 39.5,116.167 39.5,112.833 39.5,109.5 Z"/></g>
<g><path style="opacity:1" fill="#307659" d="M 49.5,109.5 C 52.8333,109.5 56.1667,109.5 59.5,109.5C 59.5,112.833 59.5,116.167 59.5,119.5C 56.1667,119.5 52.8333,119.5 49.5,119.5C 49.5,116.167 49.5,112.833 49.5,109.5 Z"/></g>
<g><path style="opacity:1" fill="#edc399" d="M 89.5,119.5 C 86.1667,119.5 82.8333,119.5 79.5,119.5C 79.5,116.167 79.5,112.833 79.5,109.5C 82.8333,109.5 86.1667,109.5 89.5,109.5C 89.5,112.833 89.5,116.167 89.5,119.5 Z"/></g>
<g><path style="opacity:1" fill="#edc399" d="M 139.5,119.5 C 136.167,119.5 132.833,119.5 129.5,119.5C 129.5,116.167 129.5,112.833 129.5,109.5C 132.833,109.5 136.167,109.5 139.5,109.5C 139.5,112.833 139.5,116.167 139.5,119.5 Z"/></g>
<g><path style="opacity:1" fill="#e5ebef" d="M -0.5,119.5 C 2.83333,119.5 6.16667,119.5 9.5,119.5C 9.5,122.833 9.5,126.167 9.5,129.5C 6.16667,129.5 2.83333,129.5 -0.5,129.5C -0.5,126.167 -0.5,122.833 -0.5,119.5 Z"/></g>
<g><path style="opacity:1" fill="#202026" d="M 9.5,119.5 C 12.8333,119.5 16.1667,119.5 19.5,119.5C 19.5,122.833 19.5,126.167 19.5,129.5C 16.1667,129.5 12.8333,129.5 9.5,129.5C 9.5,126.167 9.5,122.833 9.5,119.5 Z"/></g>
<g><path style="opacity:1" fill="#309d57" d="M 19.5,119.5 C 22.8333,119.5 26.1667,119.5 29.5,119.5C 29.5,122.833 29.5,126.167 29.5,129.5C 26.1667,129.5 22.8333,129.5 19.5,129.5C 19.5,126.167 19.5,122.833 19.5,119.5 Z"/></g>
<g><path style="opacity:1" fill="#eac761" d="M 29.5,119.5 C 32.8333,119.5 36.1667,119.5 39.5,119.5C 39.5,122.833 39.5,126.167 39.5,129.5C 36.1667,129.5 32.8333,129.5 29.5,129.5C 29.5,126.167 29.5,122.833 29.5,119.5 Z"/></g>
<g><path style="opacity:1" fill="#309d57" d="M 39.5,119.5 C 42.8333,119.5 46.1667,119.5 49.5,119.5C 49.5,122.833 49.5,126.167 49.5,129.5C 46.1667,129.5 42.8333,129.5 39.5,129.5C 39.5,126.167 39.5,122.833 39.5,119.5 Z"/></g>
<g><path style="opacity:1" fill="#edc399" d="M 79.5,119.5 C 79.5,126.167 79.5,132.833 79.5,139.5C 79.5,142.833 79.5,146.167 79.5,149.5C 76.1667,149.5 72.8333,149.5 69.5,149.5C 69.5,139.5 69.5,129.5 69.5,119.5C 72.8333,119.5 76.1667,119.5 79.5,119.5 Z"/></g>
<g><path style="opacity:1" fill="#202026" d="M 79.5,119.5 C 82.8333,119.5 86.1667,119.5 89.5,119.5C 89.5,126.167 89.5,132.833 89.5,139.5C 86.1667,139.5 82.8333,139.5 79.5,139.5C 79.5,132.833 79.5,126.167 79.5,119.5 Z"/></g>
<g><path style="opacity:1" fill="#edc399" d="M 89.5,119.5 C 102.833,119.5 116.167,119.5 129.5,119.5C 129.5,126.167 129.5,132.833 129.5,139.5C 129.5,142.833 129.5,146.167 129.5,149.5C 132.833,149.5 136.167,149.5 139.5,149.5C 139.5,152.833 139.5,156.167 139.5,159.5C 139.5,162.833 139.5,166.167 139.5,169.5C 132.833,169.5 126.167,169.5 119.5,169.5C 112.833,169.5 106.167,169.5 99.5,169.5C 92.8333,169.5 86.1667,169.5 79.5,169.5C 79.5,166.167 79.5,162.833 79.5,159.5C 79.5,156.167 79.5,152.833 79.5,149.5C 82.8333,149.5 86.1667,149.5 89.5,149.5C 89.5,146.167 89.5,142.833 89.5,139.5C 89.5,132.833 89.5,126.167 89.5,119.5 Z"/></g>
<g><path style="opacity:1" fill="#202026" d="M 129.5,119.5 C 132.833,119.5 136.167,119.5 139.5,119.5C 139.5,126.167 139.5,132.833 139.5,139.5C 136.167,139.5 132.833,139.5 129.5,139.5C 129.5,132.833 129.5,126.167 129.5,119.5 Z"/></g>
<g><path style="opacity:1" fill="#edc399" d="M 139.5,119.5 C 142.833,119.5 146.167,119.5 149.5,119.5C 149.5,129.5 149.5,139.5 149.5,149.5C 146.167,149.5 142.833,149.5 139.5,149.5C 139.5,146.167 139.5,142.833 139.5,139.5C 139.5,132.833 139.5,126.167 139.5,119.5 Z"/></g>
<g><path style="opacity:1" fill="#e5ebef" d="M 9.5,129.5 C 12.8333,129.5 16.1667,129.5 19.5,129.5C 19.5,132.833 19.5,136.167 19.5,139.5C 16.1667,139.5 12.8333,139.5 9.5,139.5C 9.5,136.167 9.5,132.833 9.5,129.5 Z"/></g>
<g><path style="opacity:1" fill="#202026" d="M 19.5,129.5 C 22.8333,129.5 26.1667,129.5 29.5,129.5C 29.5,132.833 29.5,136.167 29.5,139.5C 26.1667,139.5 22.8333,139.5 19.5,139.5C 19.5,136.167 19.5,132.833 19.5,129.5 Z"/></g>
<g><path style="opacity:1" fill="#309d57" d="M 29.5,129.5 C 32.8333,129.5 36.1667,129.5 39.5,129.5C 39.5,132.833 39.5,136.167 39.5,139.5C 36.1667,139.5 32.8333,139.5 29.5,139.5C 29.5,136.167 29.5,132.833 29.5,129.5 Z"/></g>
<g><path style="opacity:1" fill="#e5ebef" d="M 19.5,139.5 C 22.8333,139.5 26.1667,139.5 29.5,139.5C 29.5,152.833 29.5,166.167 29.5,179.5C 26.1667,179.5 22.8333,179.5 19.5,179.5C 19.5,166.167 19.5,152.833 19.5,139.5 Z"/></g>
<g><path style="opacity:1" fill="#202026" d="M 29.5,139.5 C 32.8333,139.5 36.1667,139.5 39.5,139.5C 39.5,146.167 39.5,152.833 39.5,159.5C 39.5,166.167 39.5,172.833 39.5,179.5C 36.1667,179.5 32.8333,179.5 29.5,179.5C 29.5,166.167 29.5,152.833 29.5,139.5 Z"/></g>
<g><path style="opacity:1" fill="#378897" d="M 79.5,139.5 C 82.8333,139.5 86.1667,139.5 89.5,139.5C 89.5,142.833 89.5,146.167 89.5,149.5C 86.1667,149.5 82.8333,149.5 79.5,149.5C 79.5,146.167 79.5,142.833 79.5,139.5 Z"/></g>
<g><path style="opacity:1" fill="#378897" d="M 129.5,139.5 C 132.833,139.5 136.167,139.5 139.5,139.5C 139.5,142.833 139.5,146.167 139.5,149.5C 136.167,149.5 132.833,149.5 129.5,149.5C 129.5,146.167 129.5,142.833 129.5,139.5 Z"/></g>
<g><path style="opacity:1" fill="#d07565" d="M 69.5,149.5 C 72.8333,149.5 76.1667,149.5 79.5,149.5C 79.5,152.833 79.5,156.167 79.5,159.5C 76.1667,159.5 72.8333,159.5 69.5,159.5C 69.5,156.167 69.5,152.833 69.5,149.5 Z"/></g>
<g><path style="opacity:1" fill="#202026" d="M 99.5,149.5 C 106.167,149.5 112.833,149.5 119.5,149.5C 119.5,152.833 119.5,156.167 119.5,159.5C 112.833,159.5 106.167,159.5 99.5,159.5C 99.5,156.167 99.5,152.833 99.5,149.5 Z"/></g>
<g><path style="opacity:1" fill="#d07565" d="M 139.5,149.5 C 142.833,149.5 146.167,149.5 149.5,149.5C 149.5,152.833 149.5,156.167 149.5,159.5C 146.167,159.5 142.833,159.5 139.5,159.5C 139.5,156.167 139.5,152.833 139.5,149.5 Z"/></g>
<g><path style="opacity:1" fill="#a65644" d="M 39.5,159.5 C 42.8333,159.5 46.1667,159.5 49.5,159.5C 49.5,166.167 49.5,172.833 49.5,179.5C 46.1667,179.5 42.8333,179.5 39.5,179.5C 39.5,172.833 39.5,166.167 39.5,159.5 Z"/></g>
<g><path style="opacity:1" fill="#202026" d="M 69.5,159.5 C 72.8333,159.5 76.1667,159.5 79.5,159.5C 79.5,162.833 79.5,166.167 79.5,169.5C 76.1667,169.5 72.8333,169.5 69.5,169.5C 69.5,166.167 69.5,162.833 69.5,159.5 Z"/></g>
<g><path style="opacity:1" fill="#202026" d="M 139.5,159.5 C 142.833,159.5 146.167,159.5 149.5,159.5C 149.5,162.833 149.5,166.167 149.5,169.5C 146.167,169.5 142.833,169.5 139.5,169.5C 139.5,166.167 139.5,162.833 139.5,159.5 Z"/></g>
<g><path style="opacity:1" fill="#a65644" d="M 179.5,159.5 C 179.5,166.167 179.5,172.833 179.5,179.5C 176.167,179.5 172.833,179.5 169.5,179.5C 169.5,172.833 169.5,166.167 169.5,159.5C 172.833,159.5 176.167,159.5 179.5,159.5 Z"/></g>
<g><path style="opacity:1" fill="#a9b2b9" d="M 69.5,169.5 C 72.8333,169.5 76.1667,169.5 79.5,169.5C 79.5,172.833 79.5,176.167 79.5,179.5C 76.1667,179.5 72.8333,179.5 69.5,179.5C 69.5,176.167 69.5,172.833 69.5,169.5 Z"/></g>
<g><path style="opacity:1" fill="#202026" d="M 79.5,169.5 C 86.1667,169.5 92.8333,169.5 99.5,169.5C 99.5,172.833 99.5,176.167 99.5,179.5C 92.8333,179.5 86.1667,179.5 79.5,179.5C 79.5,176.167 79.5,172.833 79.5,169.5 Z"/></g>
<g><path style="opacity:1" fill="#d8a065" d="M 99.5,169.5 C 106.167,169.5 112.833,169.5 119.5,169.5C 119.5,172.833 119.5,176.167 119.5,179.5C 112.833,179.5 106.167,179.5 99.5,179.5C 99.5,176.167 99.5,172.833 99.5,169.5 Z"/></g>
<g><path style="opacity:1" fill="#202026" d="M 119.5,169.5 C 126.167,169.5 132.833,169.5 139.5,169.5C 139.5,172.833 139.5,176.167 139.5,179.5C 132.833,179.5 126.167,179.5 119.5,179.5C 119.5,176.167 119.5,172.833 119.5,169.5 Z"/></g>
<g><path style="opacity:1" fill="#a9b2b9" d="M 139.5,169.5 C 142.833,169.5 146.167,169.5 149.5,169.5C 149.5,172.833 149.5,176.167 149.5,179.5C 146.167,179.5 142.833,179.5 139.5,179.5C 139.5,176.167 139.5,172.833 139.5,169.5 Z"/></g>
<g><path style="opacity:1" fill="#e5ebef" d="M 29.5,179.5 C 32.8333,179.5 36.1667,179.5 39.5,179.5C 39.5,182.833 39.5,186.167 39.5,189.5C 36.1667,189.5 32.8333,189.5 29.5,189.5C 29.5,186.167 29.5,182.833 29.5,179.5 Z"/></g>
<g><path style="opacity:1" fill="#202026" d="M 39.5,179.5 C 42.8333,179.5 46.1667,179.5 49.5,179.5C 49.5,182.833 49.5,186.167 49.5,189.5C 46.1667,189.5 42.8333,189.5 39.5,189.5C 39.5,186.167 39.5,182.833 39.5,179.5 Z"/></g>
<g><path style="opacity:1" fill="#a65644" d="M 49.5,179.5 C 52.8333,179.5 56.1667,179.5 59.5,179.5C 59.5,182.833 59.5,186.167 59.5,189.5C 56.1667,189.5 52.8333,189.5 49.5,189.5C 49.5,186.167 49.5,182.833 49.5,179.5 Z"/></g>
<g><path style="opacity:1" fill="#e5ebef" d="M 69.5,179.5 C 72.8333,179.5 76.1667,179.5 79.5,179.5C 79.5,182.833 79.5,186.167 79.5,189.5C 76.1667,189.5 72.8333,189.5 69.5,189.5C 69.5,186.167 69.5,182.833 69.5,179.5 Z"/></g>
<g><path style="opacity:1" fill="#309d57" d="M 79.5,179.5 C 86.1667,179.5 92.8333,179.5 99.5,179.5C 99.5,182.833 99.5,186.167 99.5,189.5C 99.5,192.833 99.5,196.167 99.5,199.5C 96.1667,199.5 92.8333,199.5 89.5,199.5C 89.5,196.167 89.5,192.833 89.5,189.5C 86.1667,189.5 82.8333,189.5 79.5,189.5C 79.5,186.167 79.5,182.833 79.5,179.5 Z"/></g>
<g><path style="opacity:1" fill="#eac761" d="M 99.5,179.5 C 106.167,179.5 112.833,179.5 119.5,179.5C 119.5,182.833 119.5,186.167 119.5,189.5C 112.833,189.5 106.167,189.5 99.5,189.5C 99.5,186.167 99.5,182.833 99.5,179.5 Z"/></g>
<g><path style="opacity:1" fill="#309d57" d="M 119.5,179.5 C 126.167,179.5 132.833,179.5 139.5,179.5C 139.5,182.833 139.5,186.167 139.5,189.5C 136.167,189.5 132.833,189.5 129.5,189.5C 129.5,192.833 129.5,196.167 129.5,199.5C 126.167,199.5 122.833,199.5 119.5,199.5C 119.5,196.167 119.5,192.833 119.5,189.5C 119.5,186.167 119.5,182.833 119.5,179.5 Z"/></g>
<g><path style="opacity:1" fill="#e5ebef" d="M 139.5,179.5 C 142.833,179.5 146.167,179.5 149.5,179.5C 149.5,182.833 149.5,186.167 149.5,189.5C 146.167,189.5 142.833,189.5 139.5,189.5C 139.5,186.167 139.5,182.833 139.5,179.5 Z"/></g>
<g><path style="opacity:1" fill="#a65644" d="M 169.5,179.5 C 169.5,182.833 169.5,186.167 169.5,189.5C 166.167,189.5 162.833,189.5 159.5,189.5C 159.5,186.167 159.5,182.833 159.5,179.5C 162.833,179.5 166.167,179.5 169.5,179.5 Z"/></g>
<g><path style="opacity:1" fill="#202026" d="M 169.5,179.5 C 172.833,179.5 176.167,179.5 179.5,179.5C 179.5,182.833 179.5,186.167 179.5,189.5C 176.167,189.5 172.833,189.5 169.5,189.5C 169.5,186.167 169.5,182.833 169.5,179.5 Z"/></g>
<g><path style="opacity:1" fill="#e5ebef" d="M 179.5,179.5 C 182.833,179.5 186.167,179.5 189.5,179.5C 189.5,182.833 189.5,186.167 189.5,189.5C 186.167,189.5 182.833,189.5 179.5,189.5C 179.5,186.167 179.5,182.833 179.5,179.5 Z"/></g>
<g><path style="opacity:1" fill="#e5ebef" d="M 39.5,189.5 C 42.8333,189.5 46.1667,189.5 49.5,189.5C 49.5,192.833 49.5,196.167 49.5,199.5C 46.1667,199.5 42.8333,199.5 39.5,199.5C 39.5,196.167 39.5,192.833 39.5,189.5 Z"/></g>
<g><path style="opacity:1" fill="#202026" d="M 49.5,189.5 C 52.8333,189.5 56.1667,189.5 59.5,189.5C 59.5,192.833 59.5,196.167 59.5,199.5C 56.1667,199.5 52.8333,199.5 49.5,199.5C 49.5,196.167 49.5,192.833 49.5,189.5 Z"/></g>
<g><path style="opacity:1" fill="#a9b2b9" d="M 69.5,189.5 C 72.8333,189.5 76.1667,189.5 79.5,189.5C 79.5,192.833 79.5,196.167 79.5,199.5C 76.1667,199.5 72.8333,199.5 69.5,199.5C 69.5,196.167 69.5,192.833 69.5,189.5 Z"/></g>
<g><path style="opacity:1" fill="#e5ebef" d="M 79.5,189.5 C 82.8333,189.5 86.1667,189.5 89.5,189.5C 89.5,192.833 89.5,196.167 89.5,199.5C 86.1667,199.5 82.8333,199.5 79.5,199.5C 79.5,196.167 79.5,192.833 79.5,189.5 Z"/></g>
<g><path style="opacity:1" fill="#595770" d="M 99.5,189.5 C 106.167,189.5 112.833,189.5 119.5,189.5C 119.5,192.833 119.5,196.167 119.5,199.5C 112.833,199.5 106.167,199.5 99.5,199.5C 99.5,196.167 99.5,192.833 99.5,189.5 Z"/></g>
<g><path style="opacity:1" fill="#e5ebef" d="M 139.5,189.5 C 139.5,192.833 139.5,196.167 139.5,199.5C 136.167,199.5 132.833,199.5 129.5,199.5C 129.5,196.167 129.5,192.833 129.5,189.5C 132.833,189.5 136.167,189.5 139.5,189.5 Z"/></g>
<g><path style="opacity:1" fill="#a9b2b9" d="M 139.5,189.5 C 142.833,189.5 146.167,189.5 149.5,189.5C 149.5,192.833 149.5,196.167 149.5,199.5C 146.167,199.5 142.833,199.5 139.5,199.5C 139.5,196.167 139.5,192.833 139.5,189.5 Z"/></g>
<g><path style="opacity:1" fill="#202026" d="M 159.5,189.5 C 162.833,189.5 166.167,189.5 169.5,189.5C 169.5,192.833 169.5,196.167 169.5,199.5C 166.167,199.5 162.833,199.5 159.5,199.5C 159.5,196.167 159.5,192.833 159.5,189.5 Z"/></g>
<g><path style="opacity:1" fill="#e5ebef" d="M 169.5,189.5 C 172.833,189.5 176.167,189.5 179.5,189.5C 179.5,192.833 179.5,196.167 179.5,199.5C 176.167,199.5 172.833,199.5 169.5,199.5C 169.5,196.167 169.5,192.833 169.5,189.5 Z"/></g>
<g><path style="opacity:1" fill="#e5ebef" d="M 49.5,199.5 C 52.8333,199.5 56.1667,199.5 59.5,199.5C 59.5,202.833 59.5,206.167 59.5,209.5C 56.1667,209.5 52.8333,209.5 49.5,209.5C 49.5,206.167 49.5,202.833 49.5,199.5 Z"/></g>
<g><path style="opacity:1" fill="#202026" d="M 59.5,199.5 C 62.8333,199.5 66.1667,199.5 69.5,199.5C 72.8333,199.5 76.1667,199.5 79.5,199.5C 82.8333,199.5 86.1667,199.5 89.5,199.5C 92.8333,199.5 96.1667,199.5 99.5,199.5C 106.167,199.5 112.833,199.5 119.5,199.5C 122.833,199.5 126.167,199.5 129.5,199.5C 132.833,199.5 136.167,199.5 139.5,199.5C 142.833,199.5 146.167,199.5 149.5,199.5C 152.833,199.5 156.167,199.5 159.5,199.5C 159.5,202.833 159.5,206.167 159.5,209.5C 126.167,209.5 92.8333,209.5 59.5,209.5C 59.5,206.167 59.5,202.833 59.5,199.5 Z"/></g>
<g><path style="opacity:1" fill="#e5ebef" d="M 159.5,199.5 C 162.833,199.5 166.167,199.5 169.5,199.5C 169.5,202.833 169.5,206.167 169.5,209.5C 166.167,209.5 162.833,209.5 159.5,209.5C 159.5,206.167 159.5,202.833 159.5,199.5 Z"/></g>
<g><path style="opacity:1" fill="#e5ebef" d="M 59.5,209.5 C 92.8333,209.5 126.167,209.5 159.5,209.5C 159.5,212.833 159.5,216.167 159.5,219.5C 126.167,219.5 92.8333,219.5 59.5,219.5C 59.5,216.167 59.5,212.833 59.5,209.5 Z"/></g>
</svg>
