<?xml version="1.0" encoding="UTF-8"?>
<!DOCTYPE svg PUBLIC "-//W3C//DTD SVG 1.1//EN" "http://www.w3.org/Graphics/SVG/1.1/DTD/svg11.dtd">
<svg xmlns="http://www.w3.org/2000/svg" version="1.1" width="192px" height="192px" style="shape-rendering:geometricPrecision; text-rendering:geometricPrecision; image-rendering:optimizeQuality; fill-rule:evenodd; clip-rule:evenodd" xmlns:xlink="http://www.w3.org/1999/xlink">
<g><path style="opacity:1" fill="#e5ebef" d="M 47.5,-0.5 C 50.1667,-0.5 52.8333,-0.5 55.5,-0.5C 55.5,2.16667 55.5,4.83333 55.5,7.5C 52.8333,7.5 50.1667,7.5 47.5,7.5C 47.5,4.83333 47.5,2.16667 47.5,-0.5 Z"/></g>
<g><path style="opacity:1" fill="#e5ebef" d="M 135.5,-0.5 C 138.167,-0.5 140.833,-0.5 143.5,-0.5C 143.5,2.16667 143.5,4.83333 143.5,7.5C 140.833,7.5 138.167,7.5 135.5,7.5C 135.5,4.83333 135.5,2.16667 135.5,-0.5 Z"/></g>
<g><path style="opacity:1" fill="#e5ebef" d="M 47.5,7.5 C 47.5,10.1667 47.5,12.8333 47.5,15.5C 44.8333,15.5 42.1667,15.5 39.5,15.5C 39.5,12.8333 39.5,10.1667 39.5,7.5C 42.1667,7.5 44.8333,7.5 47.5,7.5 Z"/></g>
<g><path style="opacity:1" fill="#202026" d="M 47.5,7.5 C 50.1667,7.5 52.8333,7.5 55.5,7.5C 55.5,10.1667 55.5,12.8333 55.5,15.5C 52.8333,15.5 50.1667,15.5 47.5,15.5C 47.5,12.8333 47.5,10.1667 47.5,7.5 Z"/></g>
<g><path style="opacity:1" fill="#e5ebef" d="M 55.5,7.5 C 58.1667,7.5 60.8333,7.5 63.5,7.5C 63.5,10.1667 63.5,12.8333 63.5,15.5C 60.8333,15.5 58.1667,15.5 55.5,15.5C 55.5,12.8333 55.5,10.1667 55.5,7.5 Z"/></g>
<g><path style="opacity:1" fill="#e5ebef" d="M 135.5,7.5 C 135.5,10.1667 135.5,12.8333 135.5,15.5C 132.833,15.5 130.167,15.5 127.5,15.5C 127.5,12.8333 127.5,10.1667 127.5,7.5C 130.167,7.5 132.833,7.5 135.5,7.5 Z"/></g>
<g><path style="opacity:1" fill="#202026" d="M 135.5,7.5 C 138.167,7.5 140.833,7.5 143.5,7.5C 143.5,10.1667 143.5,12.8333 143.5,15.5C 140.833,15.5 138.167,15.5 135.5,15.5C 135.5,12.8333 135.5,10.1667 135.5,7.5 Z"/></g>
<g><path style="opacity:1" fill="#e5ebef" d="M 143.5,7.5 C 146.167,7.5 148.833,7.5 151.5,7.5C 151.5,10.1667 151.5,12.8333 151.5,15.5C 148.833,15.5 146.167,15.5 143.5,15.5C 143.5,12.8333 143.5,10.1667 143.5,7.5 Z"/></g>
<g><path style="opacity:1" fill="#e5ebef" d="M 39.5,15.5 C 39.5,31.5 39.5,47.5 39.5,63.5C 36.8333,63.5 34.1667,63.5 31.5,63.5C 31.5,47.5 31.5,31.5 31.5,15.5C 34.1667,15.5 36.8333,15.5 39.5,15.5 Z"/></g>
<g><path style="opacity:1" fill="#202026" d="M 39.5,15.5 C 42.1667,15.5 44.8333,15.5 47.5,15.5C 47.5,23.5 47.5,31.5 47.5,39.5C 47.5,44.8333 47.5,50.1667 47.5,55.5C 50.1667,55.5 52.8333,55.5 55.5,55.5C 55.5,58.1667 55.5,60.8333 55.5,63.5C 50.1667,63.5 44.8333,63.5 39.5,63.5C 39.5,47.5 39.5,31.5 39.5,15.5 Z"/></g>
<g><path style="opacity:1" fill="#309d57" d="M 47.5,15.5 C 50.1667,15.5 52.8333,15.5 55.5,15.5C 55.5,18.1667 55.5,20.8333 55.5,23.5C 58.1667,23.5 60.8333,23.5 63.5,23.5C 63.5,26.1667 63.5,28.8333 63.5,31.5C 66.1667,31.5 68.8333,31.5 71.5,31.5C 71.5,36.8333 71.5,42.1667 71.5,47.5C 71.5,50.1667 71.5,52.8333 71.5,55.5C 68.8333,55.5 66.1667,55.5 63.5,55.5C 63.5,52.8333 63.5,50.1667 63.5,47.5C 60.8333,47.5 58.1667,47.5 55.5,47.5C 55.5,44.8333 55.5,42.1667 55.5,39.5C 52.8333,39.5 50.1667,39.5 47.5,39.5C 47.5,31.5 47.5,23.5 47.5,15.5 Z"/></g>
<g><path style="opacity:1" fill="#202026" d="M 55.5,15.5 C 58.1667,15.5 60.8333,15.5 63.5,15.5C 63.5,18.1667 63.5,20.8333 63.5,23.5C 60.8333,23.5 58.1667,23.5 55.5,23.5C 55.5,20.8333 55.5,18.1667 55.5,15.5 Z"/></g>
<g><path style="opacity:1" fill="#e5ebef" d="M 63.5,15.5 C 66.1667,15.5 68.8333,15.5 71.5,15.5C 71.5,18.1667 71.5,20.8333 71.5,23.5C 68.8333,23.5 66.1667,23.5 63.5,23.5C 63.5,20.8333 63.5,18.1667 63.5,15.5 Z"/></g>
<g><path style="opacity:1" fill="#e5ebef" d="M 127.5,15.5 C 127.5,18.1667 127.5,20.8333 127.5,23.5C 124.833,23.5 122.167,23.5 119.5,23.5C 119.5,20.8333 119.5,18.1667 119.5,15.5C 122.167,15.5 124.833,15.5 127.5,15.5 Z"/></g>
<g><path style="opacity:1" fill="#202026" d="M 127.5,15.5 C 130.167,15.5 132.833,15.5 135.5,15.5C 135.5,18.1667 135.5,20.8333 135.5,23.5C 132.833,23.5 130.167,23.5 127.5,23.5C 127.5,20.8333 127.5,18.1667 127.5,15.5 Z"/></g>
<g><path style="opacity:1" fill="#309d57" d="M 135.5,15.5 C 138.167,15.5 140.833,15.5 143.5,15.5C 143.5,23.5 143.5,31.5 143.5,39.5C 140.833,39.5 138.167,39.5 135.5,39.5C 135.5,42.1667 135.5,44.8333 135.5,47.5C 132.833,47.5 130.167,47.5 127.5,47.5C 127.5,50.1667 127.5,52.8333 127.5,55.5C 124.833,55.5 122.167,55.5 119.5,55.5C 119.5,52.8333 119.5,50.1667 119.5,47.5C 119.5,42.1667 119.5,36.8333 119.5,31.5C 122.167,31.5 124.833,31.5 127.5,31.5C 127.5,28.8333 127.5,26.1667 127.5,23.5C 130.167,23.5 132.833,23.5 135.5,23.5C 135.5,20.8333 135.5,18.1667 135.5,15.5 Z"/></g>
<g><path style="opacity:1" fill="#202026" d="M 143.5,15.5 C 146.167,15.5 148.833,15.5 151.5,15.5C 151.5,28.8333 151.5,42.1667 151.5,55.5C 148.833,55.5 146.167,55.5 143.5,55.5C 143.5,50.1667 143.5,44.8333 143.5,39.5C 143.5,31.5 143.5,23.5 143.5,15.5 Z"/></g>
<g><path style="opacity:1" fill="#e5ebef" d="M 151.5,15.5 C 154.167,15.5 156.833,15.5 159.5,15.5C 159.5,28.8333 159.5,42.1667 159.5,55.5C 156.833,55.5 154.167,55.5 151.5,55.5C 151.5,42.1667 151.5,28.8333 151.5,15.5 Z"/></g>
<g><path style="opacity:1" fill="#202026" d="M 63.5,23.5 C 66.1667,23.5 68.8333,23.5 71.5,23.5C 71.5,26.1667 71.5,28.8333 71.5,31.5C 68.8333,31.5 66.1667,31.5 63.5,31.5C 63.5,28.8333 63.5,26.1667 63.5,23.5 Z"/></g>
<g><path style="opacity:1" fill="#e5ebef" d="M 71.5,23.5 C 74.1667,23.5 76.8333,23.5 79.5,23.5C 79.5,26.1667 79.5,28.8333 79.5,31.5C 76.8333,31.5 74.1667,31.5 71.5,31.5C 71.5,28.8333 71.5,26.1667 71.5,23.5 Z"/></g>
<g><path style="opacity:1" fill="#e5ebef" d="M 119.5,23.5 C 119.5,26.1667 119.5,28.8333 119.5,31.5C 116.833,31.5 114.167,31.5 111.5,31.5C 111.5,28.8333 111.5,26.1667 111.5,23.5C 114.167,23.5 116.833,23.5 119.5,23.5 Z"/></g>
<g><path style="opacity:1" fill="#202026" d="M 119.5,23.5 C 122.167,23.5 124.833,23.5 127.5,23.5C 127.5,26.1667 127.5,28.8333 127.5,31.5C 124.833,31.5 122.167,31.5 119.5,31.5C 119.5,28.8333 119.5,26.1667 119.5,23.5 Z"/></g>
<g><path style="opacity:1" fill="#202026" d="M 71.5,31.5 C 74.1667,31.5 76.8333,31.5 79.5,31.5C 79.5,34.1667 79.5,36.8333 79.5,39.5C 90.1667,39.5 100.833,39.5 111.5,39.5C 111.5,36.8333 111.5,34.1667 111.5,31.5C 114.167,31.5 116.833,31.5 119.5,31.5C 119.5,36.8333 119.5,42.1667 119.5,47.5C 103.5,47.5 87.5,47.5 71.5,47.5C 71.5,42.1667 71.5,36.8333 71.5,31.5 Z"/></g>
<g><path style="opacity:1" fill="#e5ebef" d="M 79.5,31.5 C 90.1667,31.5 100.833,31.5 111.5,31.5C 111.5,34.1667 111.5,36.8333 111.5,39.5C 100.833,39.5 90.1667,39.5 79.5,39.5C 79.5,36.8333 79.5,34.1667 79.5,31.5 Z"/></g>
<g><path style="opacity:1" fill="#307659" d="M 47.5,39.5 C 50.1667,39.5 52.8333,39.5 55.5,39.5C 55.5,42.1667 55.5,44.8333 55.5,47.5C 58.1667,47.5 60.8333,47.5 63.5,47.5C 63.5,50.1667 63.5,52.8333 63.5,55.5C 63.5,58.1667 63.5,60.8333 63.5,63.5C 60.8333,63.5 58.1667,63.5 55.5,63.5C 55.5,60.8333 55.5,58.1667 55.5,55.5C 52.8333,55.5 50.1667,55.5 47.5,55.5C 47.5,50.1667 47.5,44.8333 47.5,39.5 Z"/></g>
<g><path style="opacity:1" fill="#307659" d="M 143.5,39.5 C 143.5,44.8333 143.5,50.1667 143.5,55.5C 140.833,55.5 138.167,55.5 135.5,55.5C 135.5,58.1667 135.5,60.8333 135.5,63.5C 132.833,63.5 130.167,63.5 127.5,63.5C 127.5,60.8333 127.5,58.1667 127.5,55.5C 127.5,52.8333 127.5,50.1667 127.5,47.5C 130.167,47.5 132.833,47.5 135.5,47.5C 135.5,44.8333 135.5,42.1667 135.5,39.5C 138.167,39.5 140.833,39.5 143.5,39.5 Z"/></g>
<g><path style="opacity:1" fill="#e16b46" d="M 71.5,47.5 C 87.5,47.5 103.5,47.5 119.5,47.5C 119.5,50.1667 119.5,52.8333 119.5,55.5C 116.833,55.5 114.167,55.5 111.5,55.5C 100.833,55.5 90.1667,55.5 79.5,55.5C 76.8333,55.5 74.1667,55.5 71.5,55.5C 71.5,52.8333 71.5,50.1667 71.5,47.5 Z"/></g>
<g><path style="opacity:1" fill="#a9b2b9" d="M 63.5,55.5 C 66.1667,55.5 68.8333,55.5 71.5,55.5C 71.5,58.1667 71.5,60.8333 71.5,63.5C 68.8333,63.5 66.1667,63.5 63.5,63.5C 63.5,60.8333 63.5,58.1667 63.5,55.5 Z"/></g>
<g><path style="opacity:1" fill="#309d57" d="M 71.5,55.5 C 74.1667,55.5 76.8333,55.5 79.5,55.5C 79.5,58.1667 79.5,60.8333 79.5,63.5C 76.8333,63.5 74.1667,63.5 71.5,63.5C 71.5,60.8333 71.5,58.1667 71.5,55.5 Z"/></g>
<g><path style="opacity:1" fill="#e5ebef" d="M 79.5,55.5 C 90.1667,55.5 100.833,55.5 111.5,55.5C 111.5,58.1667 111.5,60.8333 111.5,63.5C 100.833,63.5 90.1667,63.5 79.5,63.5C 79.5,60.8333 79.5,58.1667 79.5,55.5 Z"/></g>
<g><path style="opacity:1" fill="#309d57" d="M 111.5,55.5 C 114.167,55.5 116.833,55.5 119.5,55.5C 119.5,58.1667 119.5,60.8333 119.5,63.5C 116.833,63.5 114.167,63.5 111.5,63.5C 111.5,60.8333 111.5,58.1667 111.5,55.5 Z"/></g>
<g><path style="opacity:1" fill="#a9b2b9" d="M 119.5,55.5 C 122.167,55.5 124.833,55.5 127.5,55.5C 127.5,58.1667 127.5,60.8333 127.5,63.5C 124.833,63.5 122.167,63.5 119.5,63.5C 119.5,60.8333 119.5,58.1667 119.5,55.5 Z"/></g>
<g><path style="opacity:1" fill="#202026" d="M 143.5,55.5 C 143.5,60.8333 143.5,66.1667 143.5,71.5C 140.833,71.5 138.167,71.5 135.5,71.5C 135.5,68.8333 135.5,66.1667 135.5,63.5C 135.5,60.8333 135.5,58.1667 135.5,55.5C 138.167,55.5 140.833,55.5 143.5,55.5 Z"/></g>
<g><path style="opacity:1" fill="#e5ebef" d="M 143.5,55.5 C 146.167,55.5 148.833,55.5 151.5,55.5C 151.5,60.8333 151.5,66.1667 151.5,71.5C 148.833,71.5 146.167,71.5 143.5,71.5C 143.5,66.1667 143.5,60.8333 143.5,55.5 Z"/></g>
<g><path style="opacity:1" fill="#e5ebef" d="M 31.5,63.5 C 31.5,71.5 31.5,79.5 31.5,87.5C 28.8333,87.5 26.1667,87.5 23.5,87.5C 23.5,79.5 23.5,71.5 23.5,63.5C 26.1667,63.5 28.8333,63.5 31.5,63.5 Z"/></g>
<g><path style="opacity:1" fill="#202026" d="M 31.5,63.5 C 34.1667,63.5 36.8333,63.5 39.5,63.5C 39.5,68.8333 39.5,74.1667 39.5,79.5C 39.5,82.1667 39.5,84.8333 39.5,87.5C 36.8333,87.5 34.1667,87.5 31.5,87.5C 31.5,79.5 31.5,71.5 31.5,63.5 Z"/></g>
<g><path style="opacity:1" fill="#309d57" d="M 39.5,63.5 C 44.8333,63.5 50.1667,63.5 55.5,63.5C 55.5,66.1667 55.5,68.8333 55.5,71.5C 52.8333,71.5 50.1667,71.5 47.5,71.5C 47.5,74.1667 47.5,76.8333 47.5,79.5C 44.8333,79.5 42.1667,79.5 39.5,79.5C 39.5,74.1667 39.5,68.8333 39.5,63.5 Z"/></g>
<g><path style="opacity:1" fill="#eac761" d="M 55.5,63.5 C 58.1667,63.5 60.8333,63.5 63.5,63.5C 63.5,66.1667 63.5,68.8333 63.5,71.5C 60.8333,71.5 58.1667,71.5 55.5,71.5C 55.5,68.8333 55.5,66.1667 55.5,63.5 Z"/></g>
<g><path style="opacity:1" fill="#e5ebef" d="M 63.5,63.5 C 66.1667,63.5 68.8333,63.5 71.5,63.5C 74.1667,63.5 76.8333,63.5 79.5,63.5C 79.5,66.1667 79.5,68.8333 79.5,71.5C 74.1667,71.5 68.8333,71.5 63.5,71.5C 63.5,68.8333 63.5,66.1667 63.5,63.5 Z"/></g>
<g><path style="opacity:1" fill="#e16b46" d="M 79.5,63.5 C 90.1667,63.5 100.833,63.5 111.5,63.5C 111.5,66.1667 111.5,68.8333 111.5,71.5C 116.833,71.5 122.167,71.5 127.5,71.5C 130.167,71.5 132.833,71.5 135.5,71.5C 135.5,74.1667 135.5,76.8333 135.5,79.5C 138.167,79.5 140.833,79.5 143.5,79.5C 143.5,82.1667 143.5,84.8333 143.5,87.5C 146.167,87.5 148.833,87.5 151.5,87.5C 151.5,103.5 151.5,119.5 151.5,135.5C 148.833,135.5 146.167,135.5 143.5,135.5C 143.5,143.5 143.5,151.5 143.5,159.5C 140.833,159.5 138.167,159.5 135.5,159.5C 135.5,162.167 135.5,164.833 135.5,167.5C 132.833,167.5 130.167,167.5 127.5,167.5C 127.5,164.833 127.5,162.167 127.5,159.5C 127.5,156.833 127.5,154.167 127.5,151.5C 127.5,148.833 127.5,146.167 127.5,143.5C 127.5,140.833 127.5,138.167 127.5,135.5C 127.5,132.833 127.5,130.167 127.5,127.5C 127.5,119.5 127.5,111.5 127.5,103.5C 124.833,103.5 122.167,103.5 119.5,103.5C 119.5,100.833 119.5,98.1667 119.5,95.5C 116.833,95.5 114.167,95.5 111.5,95.5C 111.5,98.1667 111.5,100.833 111.5,103.5C 100.833,103.5 90.1667,103.5 79.5,103.5C 79.5,100.833 79.5,98.1667 79.5,95.5C 76.8333,95.5 74.1667,95.5 71.5,95.5C 71.5,98.1667 71.5,100.833 71.5,103.5C 68.8333,103.5 66.1667,103.5 63.5,103.5C 63.5,111.5 63.5,119.5 63.5,127.5C 63.5,130.167 63.5,132.833 63.5,135.5C 63.5,138.167 63.5,140.833 63.5,143.5C 63.5,146.167 63.5,148.833 63.5,151.5C 63.5,154.167 63.5,156.833 63.5,159.5C 63.5,162.167 63.5,164.833 63.5,167.5C 60.8333,167.5 58.1667,167.5 55.5,167.5C 55.5,164.833 55.5,162.167 55.5,159.5C 52.8333,159.5 50.1667,159.5 47.5,159.5C 47.5,151.5 47.5,143.5 47.5,135.5C 44.8333,135.5 42.1667,135.5 39.5,135.5C 39.5,127.5 39.5,119.5 39.5,111.5C 39.5,108.833 39.5,106.167 39.5,103.5C 42.1667,103.5 44.8333,103.5 47.5,103.5C 47.5,100.833 47.5,98.1667 47.5,95.5C 50.1667,95.5 52.8333,95.5 55.5,95.5C 55.5,92.8333 55.5,90.1667 55.5,87.5C 58.1667,87.5 60.8333,87.5 63.5,87.5C 63.5,82.1667 63.5,76.8333 63.5,71.5C 68.8333,71.5 74.1667,71.5 79.5,71.5C 79.5,68.8333 79.5,66.1667 79.5,63.5 Z"/></g>
<g><path style="opacity:1" fill="#e5ebef" d="M 111.5,63.5 C 114.167,63.5 116.833,63.5 119.5,63.5C 122.167,63.5 124.833,63.5 127.5,63.5C 127.5,66.1667 127.5,68.8333 127.5,71.5C 122.167,71.5 116.833,71.5 111.5,71.5C 111.5,68.8333 111.5,66.1667 111.5,63.5 Z"/></g>
<g><path style="opacity:1" fill="#309d57" d="M 127.5,63.5 C 130.167,63.5 132.833,63.5 135.5,63.5C 135.5,66.1667 135.5,68.8333 135.5,71.5C 132.833,71.5 130.167,71.5 127.5,71.5C 127.5,68.8333 127.5,66.1667 127.5,63.5 Z"/></g>
<g><path style="opacity:1" fill="#eac761" d="M 55.5,71.5 C 55.5,74.1667 55.5,76.8333 55.5,79.5C 52.8333,79.5 50.1667,79.5 47.5,79.5C 47.5,76.8333 47.5,74.1667 47.5,71.5C 50.1667,71.5 52.8333,71.5 55.5,71.5 Z"/></g>
<g><path style="opacity:1" fill="#dca146" d="M 55.5,71.5 C 58.1667,71.5 60.8333,71.5 63.5,71.5C 63.5,76.8333 63.5,82.1667 63.5,87.5C 60.8333,87.5 58.1667,87.5 55.5,87.5C 52.8333,87.5 50.1667,87.5 47.5,87.5C 47.5,84.8333 47.5,82.1667 47.5,79.5C 50.1667,79.5 52.8333,79.5 55.5,79.5C 55.5,76.8333 55.5,74.1667 55.5,71.5 Z"/></g>
<g><path style="opacity:1" fill="#307659" d="M 135.5,71.5 C 138.167,71.5 140.833,71.5 143.5,71.5C 143.5,74.1667 143.5,76.8333 143.5,79.5C 140.833,79.5 138.167,79.5 135.5,79.5C 135.5,76.8333 135.5,74.1667 135.5,71.5 Z"/></g>
<g><path style="opacity:1" fill="#202026" d="M 143.5,71.5 C 146.167,71.5 148.833,71.5 151.5,71.5C 151.5,76.8333 151.5,82.1667 151.5,87.5C 148.833,87.5 146.167,87.5 143.5,87.5C 143.5,84.8333 143.5,82.1667 143.5,79.5C 143.5,76.8333 143.5,74.1667 143.5,71.5 Z"/></g>
<g><path style="opacity:1" fill="#e5ebef" d="M 151.5,71.5 C 154.167,71.5 156.833,71.5 159.5,71.5C 159.5,76.8333 159.5,82.1667 159.5,87.5C 156.833,87.5 154.167,87.5 151.5,87.5C 151.5,82.1667 151.5,76.8333 151.5,71.5 Z"/></g>
<g><path style="opacity:1" fill="#307659" d="M 39.5,79.5 C 42.1667,79.5 44.8333,79.5 47.5,79.5C 47.5,82.1667 47.5,84.8333 47.5,87.5C 44.8333,87.5 42.1667,87.5 39.5,87.5C 39.5,84.8333 39.5,82.1667 39.5,79.5 Z"/></g>
<g><path style="opacity:1" fill="#e5ebef" d="M 23.5,87.5 C 23.5,90.1667 23.5,92.8333 23.5,95.5C 20.8333,95.5 18.1667,95.5 15.5,95.5C 15.5,92.8333 15.5,90.1667 15.5,87.5C 18.1667,87.5 20.8333,87.5 23.5,87.5 Z"/></g>
<g><path style="opacity:1" fill="#202026" d="M 23.5,87.5 C 26.1667,87.5 28.8333,87.5 31.5,87.5C 31.5,90.1667 31.5,92.8333 31.5,95.5C 28.8333,95.5 26.1667,95.5 23.5,95.5C 23.5,92.8333 23.5,90.1667 23.5,87.5 Z"/></g>
<g><path style="opacity:1" fill="#309d57" d="M 31.5,87.5 C 34.1667,87.5 36.8333,87.5 39.5,87.5C 39.5,90.1667 39.5,92.8333 39.5,95.5C 36.8333,95.5 34.1667,95.5 31.5,95.5C 31.5,92.8333 31.5,90.1667 31.5,87.5 Z"/></g>
<g><path style="opacity:1" fill="#eac761" d="M 39.5,87.5 C 42.1667,87.5 44.8333,87.5 47.5,87.5C 47.5,90.1667 47.5,92.8333 47.5,95.5C 44.8333,95.5 42.1667,95.5 39.5,95.5C 39.5,92.8333 39.5,90.1667 39.5,87.5 Z"/></g>
<g><path style="opacity:1" fill="#307659" d="M 47.5,87.5 C 50.1667,87.5 52.8333,87.5 55.5,87.5C 55.5,90.1667 55.5,92.8333 55.5,95.5C 52.8333,95.5 50.1667,95.5 47.5,95.5C 47.5,92.8333 47.5,90.1667 47.5,87.5 Z"/></g>
<g><path style="opacity:1" fill="#202026" d="M 151.5,87.5 C 154.167,87.5 156.833,87.5 159.5,87.5C 159.5,111.5 159.5,135.5 159.5,159.5C 156.833,159.5 154.167,159.5 151.5,159.5C 151.5,151.5 151.5,143.5 151.5,135.5C 151.5,119.5 151.5,103.5 151.5,87.5 Z"/></g>
<g><path style="opacity:1" fill="#e5ebef" d="M 159.5,87.5 C 162.167,87.5 164.833,87.5 167.5,87.5C 167.5,111.5 167.5,135.5 167.5,159.5C 164.833,159.5 162.167,159.5 159.5,159.5C 159.5,135.5 159.5,111.5 159.5,87.5 Z"/></g>
<g><path style="opacity:1" fill="#e5ebef" d="M 15.5,95.5 C 15.5,98.1667 15.5,100.833 15.5,103.5C 12.8333,103.5 10.1667,103.5 7.5,103.5C 7.5,100.833 7.5,98.1667 7.5,95.5C 10.1667,95.5 12.8333,95.5 15.5,95.5 Z"/></g>
<g><path style="opacity:1" fill="#202026" d="M 15.5,95.5 C 18.1667,95.5 20.8333,95.5 23.5,95.5C 23.5,98.1667 23.5,100.833 23.5,103.5C 20.8333,103.5 18.1667,103.5 15.5,103.5C 15.5,100.833 15.5,98.1667 15.5,95.5 Z"/></g>
<g><path style="opacity:1" fill="#309d57" d="M 23.5,95.5 C 26.1667,95.5 28.8333,95.5 31.5,95.5C 31.5,98.1667 31.5,100.833 31.5,103.5C 28.8333,103.5 26.1667,103.5 23.5,103.5C 23.5,100.833 23.5,98.1667 23.5,95.5 Z"/></g>
<g><path style="opacity:1" fill="#eac761" d="M 31.5,95.5 C 34.1667,95.5 36.8333,95.5 39.5,95.5C 39.5,98.1667 39.5,100.833 39.5,103.5C 36.8333,103.5 34.1667,103.5 31.5,103.5C 31.5,100.833 31.5,98.1667 31.5,95.5 Z"/></g>
<g><path style="opacity:1" fill="#309d57" d="M 39.5,95.5 C 42.1667,95.5 44.8333,95.5 47.5,95.5C 47.5,98.1667 47.5,100.833 47.5,103.5C 44.8333,103.5 42.1667,103.5 39.5,103.5C 39.5,100.833 39.5,98.1667 39.5,95.5 Z"/></g>
<g><path style="opacity:1" fill="#edc399" d="M 79.5,103.5 C 76.8333,103.5 74.1667,103.5 71.5,103.5C 71.5,100.833 71.5,98.1667 71.5,95.5C 74.1667,95.5 76.8333,95.5 79.5,95.5C 79.5,98.1667 79.5,100.833 79.5,103.5 Z"/></g>
<g><path style="opacity:1" fill="#edc399" d="M 119.5,103.5 C 116.833,103.5 114.167,103.5 111.5,103.5C 111.5,100.833 111.5,98.1667 111.5,95.5C 114.167,95.5 116.833,95.5 119.5,95.5C 119.5,98.1667 119.5,100.833 119.5,103.5 Z"/></g>
<g><path style="opacity:1" fill="#e5ebef" d="M 15.5,103.5 C 18.1667,103.5 20.8333,103.5 23.5,103.5C 23.5,106.167 23.5,108.833 23.5,111.5C 20.8333,111.5 18.1667,111.5 15.5,111.5C 15.5,108.833 15.5,106.167 15.5,103.5 Z"/></g>
<g><path style="opacity:1" fill="#202026" d="M 23.5,103.5 C 26.1667,103.5 28.8333,103.5 31.5,103.5C 31.5,106.167 31.5,108.833 31.5,111.5C 28.8333,111.5 26.1667,111.5 23.5,111.5C 23.5,108.833 23.5,106.167 23.5,103.5 Z"/></g>
<g><path style="opacity:1" fill="#309d57" d="M 31.5,103.5 C 34.1667,103.5 36.8333,103.5 39.5,103.5C 39.5,106.167 39.5,108.833 39.5,111.5C 36.8333,111.5 34.1667,111.5 31.5,111.5C 31.5,108.833 31.5,106.167 31.5,103.5 Z"/></g>
<g><path style="opacity:1" fill="#edc399" d="M 71.5,103.5 C 71.5,108.833 71.5,114.167 71.5,119.5C 71.5,122.167 71.5,124.833 71.5,127.5C 68.8333,127.5 66.1667,127.5 63.5,127.5C 63.5,119.5 63.5,111.5 63.5,103.5C 66.1667,103.5 68.8333,103.5 71.5,103.5 Z"/></g>
<g><path style="opacity:1" fill="#202026" d="M 71.5,103.5 C 74.1667,103.5 76.8333,103.5 79.5,103.5C 79.5,108.833 79.5,114.167 79.5,119.5C 76.8333,119.5 74.1667,119.5 71.5,119.5C 71.5,114.167 71.5,108.833 71.5,103.5 Z"/></g>
<g><path style="opacity:1" fill="#edc399" d="M 79.5,103.5 C 90.1667,103.5 100.833,103.5 111.5,103.5C 111.5,108.833 111.5,114.167 111.5,119.5C 111.5,122.167 111.5,124.833 111.5,127.5C 114.167,127.5 116.833,127.5 119.5,127.5C 119.5,130.167 119.5,132.833 119.5,135.5C 119.5,138.167 119.5,140.833 119.5,143.5C 114.167,143.5 108.833,143.5 103.5,143.5C 98.1667,143.5 92.8333,143.5 87.5,143.5C 82.1667,143.5 76.8333,143.5 71.5,143.5C 71.5,140.833 71.5,138.167 71.5,135.5C 71.5,132.833 71.5,130.167 71.5,127.5C 74.1667,127.5 76.8333,127.5 79.5,127.5C 79.5,124.833 79.5,122.167 79.5,119.5C 79.5,114.167 79.5,108.833 79.5,103.5 Z"/></g>
<g><path style="opacity:1" fill="#202026" d="M 111.5,103.5 C 114.167,103.5 116.833,103.5 119.5,103.5C 119.5,108.833 119.5,114.167 119.5,119.5C 116.833,119.5 114.167,119.5 111.5,119.5C 111.5,114.167 111.5,108.833 111.5,103.5 Z"/></g>
<g><path style="opacity:1" fill="#edc399" d="M 119.5,103.5 C 122.167,103.5 124.833,103.5 127.5,103.5C 127.5,111.5 127.5,119.5 127.5,127.5C 124.833,127.5 122.167,127.5 119.5,127.5C 119.5,124.833 119.5,122.167 119.5,119.5C 119.5,114.167 119.5,108.833 119.5,103.5 Z"/></g>
<g><path style="opacity:1" fill="#e5ebef" d="M 23.5,111.5 C 26.1667,111.5 28.8333,111.5 31.5,111.5C 31.5,127.5 31.5,143.5 31.5,159.5C 28.8333,159.5 26.1667,159.5 23.5,159.5C 23.5,143.5 23.5,127.5 23.5,111.5 Z"/></g>
<g><path style="opacity:1" fill="#202026" d="M 31.5,111.5 C 34.1667,111.5 36.8333,111.5 39.5,111.5C 39.5,119.5 39.5,127.5 39.5,135.5C 39.5,143.5 39.5,151.5 39.5,159.5C 36.8333,159.5 34.1667,159.5 31.5,159.5C 31.5,143.5 31.5,127.5 31.5,111.5 Z"/></g>
<g><path style="opacity:1" fill="#378897" d="M 71.5,119.5 C 74.1667,119.5 76.8333,119.5 79.5,119.5C 79.5,122.167 79.5,124.833 79.5,127.5C 76.8333,127.5 74.1667,127.5 71.5,127.5C 71.5,124.833 71.5,122.167 71.5,119.5 Z"/></g>
<g><path style="opacity:1" fill="#378897" d="M 111.5,119.5 C 114.167,119.5 116.833,119.5 119.5,119.5C 119.5,122.167 119.5,124.833 119.5,127.5C 116.833,127.5 114.167,127.5 111.5,127.5C 111.5,124.833 111.5,122.167 111.5,119.5 Z"/></g>
<g><path style="opacity:1" fill="#d07565" d="M 63.5,127.5 C 66.1667,127.5 68.8333,127.5 71.5,127.5C 71.5,130.167 71.5,132.833 71.5,135.5C 68.8333,135.5 66.1667,135.5 63.5,135.5C 63.5,132.833 63.5,130.167 63.5,127.5 Z"/></g>
<g><path style="opacity:1" fill="#202026" d="M 87.5,127.5 C 92.8333,127.5 98.1667,127.5 103.5,127.5C 103.5,130.167 103.5,132.833 103.5,135.5C 98.1667,135.5 92.8333,135.5 87.5,135.5C 87.5,132.833 87.5,130.167 87.5,127.5 Z"/></g>
<g><path style="opacity:1" fill="#d07565" d="M 119.5,127.5 C 122.167,127.5 124.833,127.5 127.5,127.5C 127.5,130.167 127.5,132.833 127.5,135.5C 124.833,135.5 122.167,135.5 119.5,135.5C 119.5,132.833 119.5,130.167 119.5,127.5 Z"/></g>
<g><path style="opacity:1" fill="#a65644" d="M 39.5,135.5 C 42.1667,135.5 44.8333,135.5 47.5,135.5C 47.5,143.5 47.5,151.5 47.5,159.5C 44.8333,159.5 42.1667,159.5 39.5,159.5C 39.5,151.5 39.5,143.5 39.5,135.5 Z"/></g>
<g><path style="opacity:1" fill="#202026" d="M 63.5,135.5 C 66.1667,135.5 68.8333,135.5 71.5,135.5C 71.5,138.167 71.5,140.833 71.5,143.5C 68.8333,143.5 66.1667,143.5 63.5,143.5C 63.5,140.833 63.5,138.167 63.5,135.5 Z"/></g>
<g><path style="opacity:1" fill="#202026" d="M 119.5,135.5 C 122.167,135.5 124.833,135.5 127.5,135.5C 127.5,138.167 127.5,140.833 127.5,143.5C 124.833,143.5 122.167,143.5 119.5,143.5C 119.5,140.833 119.5,138.167 119.5,135.5 Z"/></g>
<g><path style="opacity:1" fill="#a65644" d="M 151.5,135.5 C 151.5,143.5 151.5,151.5 151.5,159.5C 148.833,159.5 146.167,159.5 143.5,159.5C 143.5,151.5 143.5,143.5 143.5,135.5C 146.167,135.5 148.833,135.5 151.5,135.5 Z"/></g>
<g><path style="opacity:1" fill="#a9b2b9" d="M 63.5,143.5 C 66.1667,143.5 68.8333,143.5 71.5,143.5C 71.5,146.167 71.5,148.833 71.5,151.5C 68.8333,151.5 66.1667,151.5 63.5,151.5C 63.5,148.833 63.5,146.167 63.5,143.5 Z"/></g>
<g><path style="opacity:1" fill="#202026" d="M 71.5,143.5 C 76.8333,143.5 82.1667,143.5 87.5,143.5C 87.5,146.167 87.5,148.833 87.5,151.5C 82.1667,151.5 76.8333,151.5 71.5,151.5C 71.5,148.833 71.5,146.167 71.5,143.5 Z"/></g>
<g><path style="opacity:1" fill="#d8a065" d="M 87.5,143.5 C 92.8333,143.5 98.1667,143.5 103.5,143.5C 103.5,146.167 103.5,148.833 103.5,151.5C 98.1667,151.5 92.8333,151.5 87.5,151.5C 87.5,148.833 87.5,146.167 87.5,143.5 Z"/></g>
<g><path style="opacity:1" fill="#202026" d="M 103.5,143.5 C 108.833,143.5 114.167,143.5 119.5,143.5C 119.5,146.167 119.5,148.833 119.5,151.5C 114.167,151.5 108.833,151.5 103.5,151.5C 103.5,148.833 103.5,146.167 103.5,143.5 Z"/></g>
<g><path style="opacity:1" fill="#a9b2b9" d="M 119.5,143.5 C 122.167,143.5 124.833,143.5 127.5,143.5C 127.5,146.167 127.5,148.833 127.5,151.5C 124.833,151.5 122.167,151.5 119.5,151.5C 119.5,148.833 119.5,146.167 119.5,143.5 Z"/></g>
<g><path style="opacity:1" fill="#e5ebef" d="M 63.5,151.5 C 66.1667,151.5 68.8333,151.5 71.5,151.5C 71.5,154.167 71.5,156.833 71.5,159.5C 68.8333,159.5 66.1667,159.5 63.5,159.5C 63.5,156.833 63.5,154.167 63.5,151.5 Z"/></g>
<g><path style="opacity:1" fill="#309d57" d="M 71.5,151.5 C 76.8333,151.5 82.1667,151.5 87.5,151.5C 87.5,154.167 87.5,156.833 87.5,159.5C 87.5,162.167 87.5,164.833 87.5,167.5C 84.8333,167.5 82.1667,167.5 79.5,167.5C 79.5,164.833 79.5,162.167 79.5,159.5C 76.8333,159.5 74.1667,159.5 71.5,159.5C 71.5,156.833 71.5,154.167 71.5,151.5 Z"/></g>
<g><path style="opacity:1" fill="#eac761" d="M 87.5,151.5 C 92.8333,151.5 98.1667,151.5 103.5,151.5C 103.5,154.167 103.5,156.833 103.5,159.5C 98.1667,159.5 92.8333,159.5 87.5,159.5C 87.5,156.833 87.5,154.167 87.5,151.5 Z"/></g>
<g><path style="opacity:1" fill="#309d57" d="M 103.5,151.5 C 108.833,151.5 114.167,151.5 119.5,151.5C 119.5,154.167 119.5,156.833 119.5,159.5C 116.833,159.5 114.167,159.5 111.5,159.5C 111.5,162.167 111.5,164.833 111.5,167.5C 108.833,167.5 106.167,167.5 103.5,167.5C 103.5,164.833 103.5,162.167 103.5,159.5C 103.5,156.833 103.5,154.167 103.5,151.5 Z"/></g>
<g><path style="opacity:1" fill="#e5ebef" d="M 119.5,151.5 C 122.167,151.5 124.833,151.5 127.5,151.5C 127.5,154.167 127.5,156.833 127.5,159.5C 124.833,159.5 122.167,159.5 119.5,159.5C 119.5,156.833 119.5,154.167 119.5,151.5 Z"/></g>
<g><path style="opacity:1" fill="#e5ebef" d="M 31.5,159.5 C 34.1667,159.5 36.8333,159.5 39.5,159.5C 39.5,162.167 39.5,164.833 39.5,167.5C 36.8333,167.5 34.1667,167.5 31.5,167.5C 31.5,164.833 31.5,162.167 31.5,159.5 Z"/></g>
<g><path style="opacity:1" fill="#202026" d="M 39.5,159.5 C 42.1667,159.5 44.8333,159.5 47.5,159.5C 47.5,162.167 47.5,164.833 47.5,167.5C 44.8333,167.5 42.1667,167.5 39.5,167.5C 39.5,164.833 39.5,162.167 39.5,159.5 Z"/></g>
<g><path style="opacity:1" fill="#a65644" d="M 47.5,159.5 C 50.1667,159.5 52.8333,159.5 55.5,159.5C 55.5,162.167 55.5,164.833 55.5,167.5C 52.8333,167.5 50.1667,167.5 47.5,167.5C 47.5,164.833 47.5,162.167 47.5,159.5 Z"/></g>
<g><path style="opacity:1" fill="#a9b2b9" d="M 63.5,159.5 C 66.1667,159.5 68.8333,159.5 71.5,159.5C 71.5,162.167 71.5,164.833 71.5,167.5C 71.5,170.167 71.5,172.833 71.5,175.5C 68.8333,175.5 66.1667,175.5 63.5,175.5C 63.5,172.833 63.5,170.167 63.5,167.5C 63.5,164.833 63.5,162.167 63.5,159.5 Z"/></g>
<g><path style="opacity:1" fill="#e5ebef" d="M 71.5,159.5 C 74.1667,159.5 76.8333,159.5 79.5,159.5C 79.5,162.167 79.5,164.833 79.5,167.5C 76.8333,167.5 74.1667,167.5 71.5,167.5C 71.5,164.833 71.5,162.167 71.5,159.5 Z"/></g>
<g><path style="opacity:1" fill="#595770" d="M 87.5,159.5 C 92.8333,159.5 98.1667,159.5 103.5,159.5C 103.5,162.167 103.5,164.833 103.5,167.5C 98.1667,167.5 92.8333,167.5 87.5,167.5C 87.5,164.833 87.5,162.167 87.5,159.5 Z"/></g>
<g><path style="opacity:1" fill="#e5ebef" d="M 119.5,159.5 C 119.5,162.167 119.5,164.833 119.5,167.5C 116.833,167.5 114.167,167.5 111.5,167.5C 111.5,164.833 111.5,162.167 111.5,159.5C 114.167,159.5 116.833,159.5 119.5,159.5 Z"/></g>
<g><path style="opacity:1" fill="#a9b2b9" d="M 119.5,159.5 C 122.167,159.5 124.833,159.5 127.5,159.5C 127.5,162.167 127.5,164.833 127.5,167.5C 127.5,170.167 127.5,172.833 127.5,175.5C 124.833,175.5 122.167,175.5 119.5,175.5C 119.5,172.833 119.5,170.167 119.5,167.5C 119.5,164.833 119.5,162.167 119.5,159.5 Z"/></g>
<g><path style="opacity:1" fill="#a65644" d="M 143.5,159.5 C 143.5,162.167 143.5,164.833 143.5,167.5C 140.833,167.5 138.167,167.5 135.5,167.5C 135.5,164.833 135.5,162.167 135.5,159.5C 138.167,159.5 140.833,159.5 143.5,159.5 Z"/></g>
<g><path style="opacity:1" fill="#202026" d="M 143.5,159.5 C 146.167,159.5 148.833,159.5 151.5,159.5C 151.5,162.167 151.5,164.833 151.5,167.5C 148.833,167.5 146.167,167.5 143.5,167.5C 143.5,164.833 143.5,162.167 143.5,159.5 Z"/></g>
<g><path style="opacity:1" fill="#e5ebef" d="M 151.5,159.5 C 154.167,159.5 156.833,159.5 159.5,159.5C 159.5,162.167 159.5,164.833 159.5,167.5C 156.833,167.5 154.167,167.5 151.5,167.5C 151.5,164.833 151.5,162.167 151.5,159.5 Z"/></g>
<g><path style="opacity:1" fill="#e5ebef" d="M 39.5,167.5 C 42.1667,167.5 44.8333,167.5 47.5,167.5C 47.5,170.167 47.5,172.833 47.5,175.5C 44.8333,175.5 42.1667,175.5 39.5,175.5C 39.5,172.833 39.5,170.167 39.5,167.5 Z"/></g>
<g><path style="opacity:1" fill="#202026" d="M 47.5,167.5 C 50.1667,167.5 52.8333,167.5 55.5,167.5C 55.5,170.167 55.5,172.833 55.5,175.5C 52.8333,175.5 50.1667,175.5 47.5,175.5C 47.5,172.833 47.5,170.167 47.5,167.5 Z"/></g>
<g><path style="opacity:1" fill="#a65644" d="M 55.5,167.5 C 58.1667,167.5 60.8333,167.5 63.5,167.5C 63.5,170.167 63.5,172.833 63.5,175.5C 60.8333,175.5 58.1667,175.5 55.5,175.5C 55.5,172.833 55.5,170.167 55.5,167.5 Z"/></g>
<g><path style="opacity:1" fill="#309d57" d="M 71.5,167.5 C 74.1667,167.5 76.8333,167.5 79.5,167.5C 79.5,170.167 79.5,172.833 79.5,175.5C 76.8333,175.5 74.1667,175.5 71.5,175.5C 71.5,172.833 71.5,170.167 71.5,167.5 Z"/></g>
<g><path style="opacity:1" fill="#595770" d="M 79.5,167.5 C 82.1667,167.5 84.8333,167.5 87.5,167.5C 87.5,170.167 87.5,172.833 87.5,175.5C 84.8333,175.5 82.1667,175.5 79.5,175.5C 79.5,172.833 79.5,170.167 79.5,167.5 Z"/></g>
<g><path style="opacity:1" fill="#eac761" d="M 87.5,167.5 C 92.8333,167.5 98.1667,167.5 103.5,167.5C 103.5,170.167 103.5,172.833 103.5,175.5C 98.1667,175.5 92.8333,175.5 87.5,175.5C 87.5,172.833 87.5,170.167 87.5,167.5 Z"/></g>
<g><path style="opacity:1" fill="#595770" d="M 103.5,167.5 C 106.167,167.5 108.833,167.5 111.5,167.5C 111.5,170.167 111.5,172.833 111.5,175.5C 108.833,175.5 106.167,175.5 103.5,175.5C 103.5,172.833 103.5,170.167 103.5,167.5 Z"/></g>
<g><path style="opacity:1" fill="#309d57" d="M 111.5,167.5 C 114.167,167.5 116.833,167.5 119.5,167.5C 119.5,170.167 119.5,172.833 119.5,175.5C 116.833,175.5 114.167,175.5 111.5,175.5C 111.5,172.833 111.5,170.167 111.5,167.5 Z"/></g>
<g><path style="opacity:1" fill="#a65644" d="M 127.5,167.5 C 130.167,167.5 132.833,167.5 135.5,167.5C 135.5,170.167 135.5,172.833 135.5,175.5C 132.833,175.5 130.167,175.5 127.5,175.5C 127.5,172.833 127.5,170.167 127.5,167.5 Z"/></g>
<g><path style="opacity:1" fill="#202026" d="M 135.5,167.5 C 138.167,167.5 140.833,167.5 143.5,167.5C 143.5,170.167 143.5,172.833 143.5,175.5C 140.833,175.5 138.167,175.5 135.5,175.5C 135.5,172.833 135.5,170.167 135.5,167.5 Z"/></g>
<g><path style="opacity:1" fill="#e5ebef" d="M 143.5,167.5 C 146.167,167.5 148.833,167.5 151.5,167.5C 151.5,170.167 151.5,172.833 151.5,175.5C 148.833,175.5 146.167,175.5 143.5,175.5C 143.5,172.833 143.5,170.167 143.5,167.5 Z"/></g>
<g><path style="opacity:1" fill="#e5ebef" d="M 47.5,175.5 C 50.1667,175.5 52.8333,175.5 55.5,175.5C 55.5,178.167 55.5,180.833 55.5,183.5C 52.8333,183.5 50.1667,183.5 47.5,183.5C 47.5,180.833 47.5,178.167 47.5,175.5 Z"/></g>
<g><path style="opacity:1" fill="#202026" d="M 55.5,175.5 C 58.1667,175.5 60.8333,175.5 63.5,175.5C 66.1667,175.5 68.8333,175.5 71.5,175.5C 74.1667,175.5 76.8333,175.5 79.5,175.5C 82.1667,175.5 84.8333,175.5 87.5,175.5C 92.8333,175.5 98.1667,175.5 103.5,175.5C 106.167,175.5 108.833,175.5 111.5,175.5C 114.167,175.5 116.833,175.5 119.5,175.5C 122.167,175.5 124.833,175.5 127.5,175.5C 130.167,175.5 132.833,175.5 135.5,175.5C 135.5,178.167 135.5,180.833 135.5,183.5C 108.833,183.5 82.1667,183.5 55.5,183.5C 55.5,180.833 55.5,178.167 55.5,175.5 Z"/></g>
<g><path style="opacity:1" fill="#e5ebef" d="M 135.5,175.5 C 138.167,175.5 140.833,175.5 143.5,175.5C 143.5,178.167 143.5,180.833 143.5,183.5C 140.833,183.5 138.167,183.5 135.5,183.5C 135.5,180.833 135.5,178.167 135.5,175.5 Z"/></g>
<g><path style="opacity:1" fill="#e5ebef" d="M 55.5,183.5 C 82.1667,183.5 108.833,183.5 135.5,183.5C 135.5,186.167 135.5,188.833 135.5,191.5C 108.833,191.5 82.1667,191.5 55.5,191.5C 55.5,188.833 55.5,186.167 55.5,183.5 Z"/></g>
</svg>
